<?xml version="1.0" encoding="utf-8"?>
<!-- Generator: Adobe Illustrator 21.1.0, SVG Export Plug-In . SVG Version: 6.00 Build 0)  -->
<svg version="1.1" id="Layer_1" xmlns="http://www.w3.org/2000/svg" xmlns:xlink="http://www.w3.org/1999/xlink" x="0px" y="0px"
	 viewBox="0 0 355.3 50" style="enable-background:new 0 0 355.3 50;" xml:space="preserve">
<g id="layer1_16_" transform="translate(-288.15635,-348.0625)">
	<path id="path3211_16_" d="M315.3,348.1c-6.6,0-11.9,5.3-11.9,11.9c0,4.7,2.7,8.7,6.6,10.7c1.2,0.6-0.1,2.1-1,1.1
		c-2.2-2.5-5.4-4-8.9-4c-6.6,0-11.9,5.3-11.9,11.9s5.3,11.9,11.9,11.9c6.5,0,11.9-5.3,11.9-11.8c0-1.2,1.8-1.3,1.8,0.3
		c0,2.4-2.4,15.4-3.6,17.9c1.4-0.3,3.7-0.6,5.1-0.6c1.4,0,3.7,0.3,5.1,0.6c-1.3-2.5-3.6-15.5-3.6-17.9c0-1.6,1.8-1.4,1.8-0.3
		c0.1,6.5,5.4,11.8,11.9,11.8c6.6,0,11.9-5.3,11.9-11.9s-5.3-11.9-11.9-11.9c-3.6,0-6.7,1.6-8.9,4c-0.9,1-2.2-0.5-1-1.1
		c3.9-1.9,6.6-6,6.6-10.7C327.2,353.4,321.8,348.1,315.3,348.1z"/>
</g>
<g>
	<path d="M83.7,34.4c3.1,0,5.6-1.2,7.5-3.6l4,4.1c-3.2,3.6-6.9,5.4-11.2,5.4c-4.3,0-7.9-1.4-10.6-4.1c-2.8-2.7-4.2-6.2-4.2-10.3
		s1.4-7.6,4.3-10.4s6.3-4.2,10.4-4.2c4.6,0,8.4,1.7,11.5,5.2l-3.9,4.4c-2-2.5-4.4-3.7-7.4-3.7c-2.3,0-4.4,0.8-6,2.3
		c-1.7,1.5-2.5,3.6-2.5,6.2c0,2.6,0.8,4.7,2.4,6.3C79.6,33.6,81.5,34.4,83.7,34.4z"/>
	<path d="M99.5,39.9v-28h6.2v22.4h11.9v5.6H99.5z"/>
	<path d="M128.3,32.7c1,1.3,2.4,1.9,4.2,1.9c1.8,0,3.2-0.6,4.2-1.9c1-1.3,1.5-3.1,1.5-5.3V11.9h6.2v15.6c0,4.1-1.1,7.2-3.4,9.3
		c-2.2,2.2-5.1,3.3-8.6,3.3c-3.5,0-6.4-1.1-8.6-3.3c-2.3-2.2-3.4-5.3-3.4-9.3V11.9h6.2v15.4C126.8,29.6,127.3,31.4,128.3,32.7z"/>
	<path d="M163,39.9h-12.2v-28h10.9c1.9,0,3.5,0.2,4.9,0.7s2.4,1.1,3.1,1.8c1.3,1.4,1.9,3.1,1.9,4.9c0,2.2-0.7,3.8-2.1,4.9
		c-0.5,0.4-0.8,0.6-1,0.7s-0.5,0.2-1,0.5c1.7,0.4,3.1,1.2,4.1,2.3s1.5,2.7,1.5,4.4c0,1.9-0.7,3.7-2,5.2
		C169.5,39,166.8,39.9,163,39.9z M157,23.3h3c1.7,0,3-0.2,3.9-0.6c0.8-0.4,1.3-1.2,1.3-2.4c0-1.2-0.4-2.1-1.2-2.5
		c-0.8-0.4-2.1-0.6-3.9-0.6h-3V23.3z M157,34.6h4.3c1.8,0,3.1-0.2,4-0.7c0.9-0.4,1.3-1.3,1.3-2.6c0-1.3-0.5-2.1-1.4-2.6
		c-0.9-0.4-2.5-0.6-4.5-0.6H157V34.6z"/>
	<path d="M184.5,17.5c-0.6,0.5-0.9,1.1-0.9,2c0,0.8,0.4,1.5,1.1,1.9c0.7,0.5,2.4,1,5.1,1.7s4.7,1.6,6.2,2.9c1.5,1.3,2.2,3.2,2.2,5.7
		c0,2.5-0.9,4.5-2.8,6.1c-1.9,1.6-4.4,2.3-7.4,2.3c-4.4,0-8.4-1.6-12-4.9l3.7-4.6c3,2.6,5.8,4,8.4,4c1.1,0,2-0.2,2.7-0.7s1-1.2,1-2
		c0-0.8-0.3-1.5-1-2c-0.7-0.5-2.1-1-4.1-1.5c-3.3-0.8-5.6-1.8-7.1-3c-1.5-1.2-2.3-3.2-2.3-5.8s1-4.7,2.9-6.1
		c1.9-1.4,4.3-2.2,7.1-2.2c1.9,0,3.7,0.3,5.6,1c1.9,0.6,3.5,1.5,4.9,2.7l-3.2,4.6c-2.4-1.8-4.9-2.8-7.5-2.8
		C185.9,16.8,185.1,17,184.5,17.5z"/>
	<path d="M225.9,18c2.5,0,4.7,1,6.7,3.1c2,2.1,2.9,4.7,2.9,7.9c0,3.2-1,5.8-2.9,8c-2,2.1-4.3,3.2-6.9,3.2s-4.7-1.1-6.3-3.2v10.6h-6
		V18.4h6v2.4C221.2,18.9,223.4,18,225.9,18z M219.3,29.2c0,1.7,0.5,3.2,1.5,4.3c1,1.1,2.2,1.7,3.5,1.7s2.6-0.6,3.6-1.7
		c1-1.1,1.6-2.5,1.6-4.3S229,26,228,24.8c-1-1.2-2.2-1.8-3.6-1.8s-2.6,0.6-3.6,1.7S219.3,27.4,219.3,29.2z"/>
	<path d="M251,23.7c-1.8,0-3.1,0.6-4,1.9s-1.3,2.9-1.3,5v9.3h-6V18.4h6v2.8c0.8-0.9,1.7-1.6,2.9-2.2c1.2-0.6,2.3-0.9,3.5-1l0,5.6
		H251z"/>
	<path d="M277.1,29.1c0,3.1-1.1,5.7-3.2,7.9c-2.2,2.1-4.9,3.2-8.1,3.2c-3.3,0-6-1.1-8.1-3.2c-2.2-2.1-3.2-4.8-3.2-7.9
		s1.1-5.8,3.2-7.9c2.2-2.1,4.9-3.2,8.1-3.2c3.3,0,6,1.1,8.1,3.2C276,23.4,277.1,26,277.1,29.1z M260.3,29.1c0,1.8,0.5,3.2,1.5,4.3
		c1,1.1,2.3,1.7,3.8,1.7c1.6,0,2.8-0.6,3.8-1.7c1-1.1,1.5-2.5,1.5-4.3s-0.5-3.2-1.5-4.3s-2.3-1.7-3.8-1.7c-1.6,0-2.8,0.6-3.8,1.7
		S260.3,27.4,260.3,29.1z"/>
	<path d="M282,40.3v-22h6v22.4c0,2.3-0.7,4.2-2.1,5.6c-1.4,1.4-3.2,2-5.2,2s-4-0.9-5.9-2.6l2.8-4.4c0.8,0.9,1.7,1.4,2.7,1.4
		c0.5,0,1-0.2,1.3-0.6C281.8,41.7,282,41.1,282,40.3z M282.5,15.6c-0.7-0.7-1-1.5-1-2.5c0-1,0.3-1.8,1-2.5s1.5-1,2.5-1
		s1.8,0.3,2.5,1s1,1.5,1,2.5c0,1-0.3,1.8-1,2.5s-1.5,1-2.5,1S283.2,16.3,282.5,15.6z"/>
	<path d="M311.9,36.8c-2.4,2.3-5.3,3.4-8.5,3.4c-3.3,0-6-1-8.1-3c-2.1-2-3.2-4.7-3.2-8.1c0-3.4,1.1-6.1,3.3-8.1c2.2-2,4.7-3,7.7-3
		s5.5,0.9,7.5,2.7c2.1,1.8,3.1,4.2,3.1,7.4v3.2H298c0.2,1.2,0.8,2.1,1.8,2.9c1,0.7,2.2,1.1,3.5,1.1c2.1,0,3.8-0.7,5.2-2.1
		L311.9,36.8z M306.1,24c-0.8-0.7-1.8-1-3-1c-1.2,0-2.3,0.4-3.3,1.1c-1,0.7-1.6,1.7-1.7,2.9h9.4C307.4,25.7,306.9,24.7,306.1,24z"/>
	<path d="M328.1,34.9c2,0,3.8-1,5.4-3l3.6,4c-2.8,2.9-5.8,4.3-9,4.3s-6-1-8.2-3.1c-2.2-2-3.3-4.7-3.3-8c0-3.3,1.1-6,3.4-8
		c2.3-2.1,4.9-3.1,8-3.1c1.5,0,3.1,0.3,4.7,1c1.6,0.6,3,1.6,4.2,2.8l-3.1,4.1c-0.7-0.8-1.5-1.5-2.5-1.9c-1-0.5-2-0.7-3-0.7
		c-1.6,0-2.9,0.5-4.1,1.5s-1.7,2.5-1.7,4.3c0,1.8,0.6,3.2,1.7,4.3S326.6,34.9,328.1,34.9z"/>
	<path d="M348.1,22.7v9.6c0,0.8,0.2,1.5,0.6,1.9c0.4,0.5,0.9,0.7,1.5,0.7c1.1,0,2.1-0.5,2.8-1.5l2.2,4.2c-1.9,1.7-3.8,2.6-5.9,2.6
		s-3.8-0.7-5.2-2S342,35,342,32.6v-9.9h-2.5v-4.3h2.5v-6.4h6v6.4h5.2v4.3H348.1z"/>
</g>
<g>
</g>
<g>
</g>
<g>
</g>
<g>
</g>
<g>
</g>
<g>
</g>
<g>
</g>
<g>
</g>
<g>
</g>
<g>
</g>
<g>
</g>
<g>
</g>
<g>
</g>
<g>
</g>
<g>
</g>
</svg>
