<svg version="1" xmlns="http://www.w3.org/2000/svg" viewBox="0 0 303.7 50"><path d="M27.144.038c-6.6 0-11.9 5.3-11.9 11.9 0 4.7 2.7 8.7 6.6 10.7 1.2.6-.1 2.1-1 1.1-2.2-2.5-5.4-4-8.9-4-6.6 0-11.9 5.3-11.9 11.9 0 6.6 5.3 11.9 11.9 11.9 6.5 0 11.9-5.3 11.9-11.8 0-1.2 1.8-1.3 1.8.3 0 2.4-2.4 15.4-3.6 17.9 1.4-.3 3.7-.6 5.1-.6s3.7.3 5.1.6c-1.3-2.5-3.6-15.5-3.6-17.9 0-1.6 1.8-1.4 1.8-.3.1 6.5 5.4 11.8 11.9 11.8 6.6 0 11.9-5.3 11.9-11.9 0-6.6-5.3-11.9-11.9-11.9-3.6 0-6.7 1.6-8.9 4-.9 1-2.2-.5-1-1.1 3.9-1.9 6.6-6 6.6-10.7 0-6.6-5.3-11.9-11.9-11.9zM76.5 18c1.5 0 2.8-.6 3.8-1.8l2 2.1c-1.6 1.8-3.5 2.7-5.6 2.7s-3.9-.7-5.3-2c-1.4-1.4-2.1-3.1-2.1-5.2s.7-3.8 2.1-5.2c1.4-1.4 3.2-2.1 5.2-2.1 2.3 0 4.2.9 5.8 2.6l-1.9 2.2c-1-1.2-2.2-1.8-3.7-1.8-1.2 0-2.2.4-3 1.2-.8.8-1.2 1.8-1.2 3.1s.4 2.3 1.2 3.1c.6.7 1.6 1.1 2.7 1.1zm13.3-5.4c-.9 0-1.6.3-2 1-.4.6-.7 1.5-.7 2.5v4.7h-3V10h3v1.4c.4-.4.9-.8 1.5-1.1s1.2-.5 1.8-.5v2.8h-.6zm13.1 2.8c0 1.6-.5 2.9-1.6 3.9-1.1 1.1-2.4 1.6-4.1 1.6-1.6 0-3-.5-4.1-1.6-1.1-1.1-1.6-2.4-1.6-3.9 0-1.6.5-2.9 1.6-4s2.4-1.6 4.1-1.6c1.6 0 3 .5 4.1 1.6s1.6 2.4 1.6 4zm-8.3 0c0 .9.2 1.6.8 2.1.5.6 1.1.8 1.9.8.8 0 1.4-.3 1.9-.8.5-.6.8-1.3.8-2.1s-.2-1.6-.8-2.2c-.5-.6-1.1-.8-1.9-.8-.8 0-1.4.3-1.9.8-.6.6-.8 1.3-.8 2.2zm18.5 2c0 1.1-.4 1.9-1.2 2.6-.8.6-1.8 1-3 1-.8 0-1.6-.1-2.5-.4-.9-.3-1.6-.7-2.3-1.3l1.3-1.9c1.1.9 2.3 1.3 3.6 1.3.4 0 .7-.1.9-.2.2-.2.3-.4.3-.6s-.2-.5-.5-.7c-.3-.2-.8-.4-1.4-.6-.6-.2-1-.3-1.4-.5-.3-.1-.7-.3-1.1-.6-.8-.5-1.2-1.3-1.2-2.2s.4-1.8 1.2-2.4c.8-.6 1.8-.9 3.1-.9s2.5.4 3.8 1.3l-1.1 2c-.9-.6-1.9-1-2.8-1-.9 0-1.4.3-1.4.8 0 .3.1.5.4.7.3.2.8.3 1.5.6.7.2 1.2.4 1.5.5.3.1.6.3 1 .5.9.2 1.3.9 1.3 2zm10.3 0c0 1.1-.4 1.9-1.2 2.6-.8.6-1.8 1-3 1-.8 0-1.6-.1-2.5-.4-.9-.3-1.6-.7-2.3-1.3l1.3-1.9c1.1.9 2.3 1.3 3.6 1.3.4 0 .7-.1.9-.2.2-.2.3-.4.3-.6s-.2-.5-.5-.7c-.3-.2-.8-.4-1.4-.6-.6-.2-1-.3-1.4-.5-.3-.1-.7-.3-1.1-.6-.8-.5-1.2-1.3-1.2-2.2s.4-1.8 1.2-2.4c.8-.6 1.8-.9 3.1-.9s2.5.4 3.8 1.3l-1.1 2c-.9-.6-1.9-1-2.8-1-.9 0-1.4.3-1.4.8 0 .3.1.5.4.7.3.2.8.3 1.5.6.7.2 1.2.4 1.5.5.3.1.6.3 1 .5.9.2 1.3.9 1.3 2zm1.9-1.3v-2.7h7.1v2.7h-7.1zm12.9 4.7h-3V5.9h3v14.9zm3.1-12.2c-.3-.3-.5-.8-.5-1.2s.2-.9.5-1.2c.3-.3.8-.5 1.2-.5s.9.2 1.2.5c.3.3.5.8.5 1.2s-.2.9-.5 1.2c-.3.3-.8.5-1.2.5s-.9-.1-1.2-.5zm2.7 12.2h-3V10h3v10.8zm5.9-6v6h-3V10h3v1.2c.9-.9 1.9-1.4 3.1-1.4s2.1.4 2.8 1.2c.8.8 1.2 1.9 1.2 3.2v6.5h-3v-6.1c0-1.7-.6-2.5-1.8-2.5-.6 0-1.1.2-1.6.7s-.7 1.1-.7 2zm17.6 4.1c-.9 1.1-2.1 1.6-3.5 1.6s-2.6-.5-3.6-1.4-1.5-2.2-1.5-3.8c0-1.6.5-2.9 1.5-3.9s2.1-1.5 3.4-1.5c1.3 0 2.3.5 3.2 1.6V10h3v9.4c0 1-.2 1.8-.5 2.6-.3.7-.8 1.3-1.3 1.8-1.1.9-2.4 1.3-3.9 1.3-.8 0-1.6-.1-2.5-.4s-1.6-.6-2.2-1.1l1.2-2.3c1 .7 2 1.1 3.1 1.1s2-.3 2.6-.8 1-1.5 1-2.7zm-.4-3.8c0-.9-.2-1.5-.7-2-.5-.5-1.1-.7-1.8-.7s-1.3.2-1.8.7c-.5.5-.8 1.2-.8 2s.2 1.5.8 2.1c.5.5 1.1.8 1.8.8s1.3-.3 1.8-.8.7-1.2.7-2.1zm12.7.7V10h3v10.8h-3v-1.4c-.7 1.1-1.7 1.6-2.9 1.6s-2.2-.4-3-1.1-1.2-1.8-1.2-3.3V10h3v5.9c0 1.7.6 2.5 1.8 2.5.6 0 1.1-.2 1.6-.7.5-.4.7-1.1.7-1.9zm15 5H192v-1.3c-.8 1-1.7 1.5-2.9 1.5s-2.1-.3-2.9-1-1.2-1.5-1.2-2.6.4-1.9 1.2-2.5c.8-.5 1.9-.8 3.3-.8h2.2V14c0-1.1-.6-1.7-1.8-1.7-.5 0-1.1.1-1.7.3-.6.2-1.1.5-1.5.8l-1.3-1.9c1.4-1 3-1.5 4.8-1.5 1.3 0 2.4.3 3.2 1 .8.7 1.2 1.7 1.2 3.1v6.7zm-3-4.1v-.5h-1.9c-1.2 0-1.8.4-1.8 1.1 0 .4.1.7.4.9.3.2.7.3 1.2.3s1-.2 1.4-.5c.5-.4.7-.8.7-1.3zm8.7 4.1h-3V5.9h3v14.9zm16.2-3.4c0 1.1-.4 1.9-1.2 2.6-.8.6-1.8 1-3 1-.8 0-1.6-.1-2.5-.4-.9-.3-1.6-.7-2.3-1.3l1.3-1.9c1.1.9 2.3 1.3 3.6 1.3.4 0 .7-.1.9-.2.2-.2.3-.4.3-.6s-.2-.5-.5-.7c-.3-.2-.8-.4-1.4-.6-.6-.2-1-.3-1.4-.5-.3-.1-.7-.3-1.1-.6-.8-.5-1.2-1.3-1.2-2.2s.4-1.8 1.2-2.4 1.8-.9 3.1-.9 2.5.4 3.8 1.3l-1.1 2c-.9-.6-1.9-1-2.8-1s-1.4.3-1.4.8c0 .3.1.5.4.7s.8.3 1.5.6c.7.2 1.2.4 1.5.5.3.1.6.3 1 .5 1 .2 1.3.9 1.3 2zm11.5 1.8c-1.2 1.1-2.6 1.7-4.3 1.7-1.6 0-3-.5-4-1.5-1.1-1-1.6-2.4-1.6-4s.5-3 1.6-4 2.4-1.5 3.8-1.5c1.5 0 2.7.4 3.8 1.3 1 .9 1.5 2.1 1.5 3.7v1.6h-7.8c.1.6.4 1.1.9 1.4.5.4 1.1.6 1.8.6 1.1 0 1.9-.4 2.6-1.1l1.7 1.8zm-2.9-6.4c-.4-.3-.9-.5-1.5-.5s-1.1.2-1.6.5c-.5.4-.8.8-.9 1.5h4.7c0-.6-.3-1.1-.7-1.5zm15 8h-2.8v-1.3c-.8 1-1.7 1.5-2.9 1.5s-2.1-.3-2.9-1-1.2-1.5-1.2-2.6.4-1.9 1.2-2.5c.8-.5 1.9-.8 3.3-.8h2.2V14c0-1.1-.6-1.7-1.8-1.7-.5 0-1.1.1-1.7.3-.6.2-1.1.5-1.5.8l-1.3-1.9c1.4-1 3-1.5 4.8-1.5 1.3 0 2.4.3 3.2 1 .8.7 1.2 1.7 1.2 3.1v6.7zm-3-4.1v-.5h-1.9c-1.2 0-1.8.4-1.8 1.1 0 .4.1.7.4.9.3.2.7.3 1.2.3s1-.2 1.4-.5c.5-.4.7-.8.7-1.3zm11.4-4.1c-.9 0-1.6.3-2 1-.4.6-.7 1.5-.7 2.5v4.7h-3V10h3v1.4c.4-.4.9-.8 1.5-1.1s1.2-.5 1.8-.5v2.8h-.6zm7.6 5.7c1 0 1.9-.5 2.7-1.5l1.8 2c-1.4 1.4-2.9 2.2-4.5 2.2s-3-.5-4.1-1.5c-1.1-1-1.7-2.4-1.7-4s.6-3 1.7-4 2.5-1.5 4-1.5c.8 0 1.6.2 2.3.5.8.3 1.5.8 2.1 1.4l-1.6 2c-.3-.4-.8-.7-1.3-1s-1-.3-1.5-.3c-.8 0-1.5.3-2 .8-.6.5-.8 1.2-.8 2.1 0 .9.3 1.6.8 2.1s1.3.7 2.1.7zm9.3-3.3v5.8h-3V5.9h3v5.3c.9-.9 1.9-1.4 3-1.4s2.1.4 2.9 1.2c.8.8 1.2 1.9 1.2 3.2v6.5h-3v-5.9c0-1.7-.6-2.5-1.8-2.5-.6 0-1.1.2-1.6.7s-.7 1.1-.7 2zm25.8.4c0 1.6-.5 2.9-1.6 3.9-1.1 1.1-2.4 1.6-4.1 1.6-1.6 0-3-.5-4.1-1.6-1.1-1.1-1.6-2.4-1.6-3.9 0-1.6.5-2.9 1.6-4s2.4-1.6 4.1-1.6c1.6 0 3 .5 4.1 1.6 1.1 1.1 1.6 2.4 1.6 4zm-8.3 0c0 .9.2 1.6.8 2.1.5.6 1.1.8 1.9.8.8 0 1.4-.3 1.9-.8.5-.6.8-1.3.8-2.1s-.2-1.6-.8-2.2c-.5-.6-1.1-.8-1.9-.8-.8 0-1.4.3-1.9.8-.6.6-.8 1.3-.8 2.2zm13.8-6v.7h2.6v2.2h-2.6v8.5h-3v-8.5h-1.3v-2.2h1.3v-.7c0-1.2.4-2.1 1.1-2.8s1.6-1 2.7-1 2 .4 2.9 1.2l-1.1 2c-.4-.5-.9-.8-1.5-.8-.3 0-.6.1-.8.3-.2.3-.3.7-.3 1.1zM76 31.8c1.3 0 2.4.5 3.4 1.5s1.5 2.3 1.5 3.9-.5 2.9-1.5 4-2.1 1.6-3.4 1.6-2.3-.5-3.2-1.6v1.4h-3V27.9h3v5.3c.8-.9 1.9-1.4 3.2-1.4zm-3.3 5.6c0 .9.2 1.6.7 2.1.5.6 1.1.8 1.8.8s1.3-.3 1.8-.8c.5-.6.8-1.3.8-2.1 0-.9-.3-1.6-.8-2.2-.5-.6-1.1-.9-1.8-.9s-1.3.3-1.8.9-.7 1.3-.7 2.2zm10.6-6.8c-.3-.3-.5-.8-.5-1.2s.2-.9.5-1.2.8-.5 1.2-.5.9.2 1.2.5.5.8.5 1.2-.2.9-.5 1.2-.8.5-1.2.5-.9-.1-1.2-.5zM86 42.8h-3V32h3v10.8zm9-11c1.3 0 2.4.5 3.4 1.5s1.5 2.3 1.5 3.9-.5 2.9-1.5 4-2.1 1.6-3.4 1.6-2.3-.5-3.2-1.6v1.4h-3V27.9h3v5.3c.9-.9 1.9-1.4 3.2-1.4zm-3.2 5.6c0 .9.2 1.6.7 2.1.5.6 1.1.8 1.8.8s1.3-.3 1.8-.8c.5-.6.8-1.3.8-2.1 0-.9-.3-1.6-.8-2.2-.5-.6-1.1-.9-1.8-.9s-1.3.3-1.8.9-.7 1.3-.7 2.2zm13.3 5.4h-3V27.9h3v14.9zm3.1-12.2c-.3-.3-.5-.8-.5-1.2s.2-.9.5-1.2.8-.5 1.2-.5.9.2 1.2.5.5.8.5 1.2-.2.9-.5 1.2-.8.5-1.2.5-.9-.1-1.2-.5zm2.7 12.2h-3V32h3v10.8zm13.6-5.4c0 1.6-.5 2.9-1.6 3.9-1.1 1.1-2.4 1.6-4.1 1.6-1.6 0-3-.5-4.1-1.6-1.1-1.1-1.6-2.4-1.6-3.9 0-1.6.5-2.9 1.6-4s2.4-1.6 4.1-1.6c1.6 0 3 .5 4.1 1.6s1.6 2.4 1.6 4zm-8.4 0c0 .9.2 1.6.8 2.1.5.6 1.1.8 1.9.8.8 0 1.4-.3 1.9-.8.5-.6.8-1.3.8-2.1s-.2-1.6-.8-2.2-1.1-.8-1.9-.8c-.8 0-1.4.3-1.9.8s-.8 1.3-.8 2.2zm18.5 3.5c-.9 1.1-2.1 1.6-3.5 1.6s-2.6-.5-3.6-1.4c-1-1-1.5-2.2-1.5-3.8 0-1.6.5-2.9 1.5-3.9s2.1-1.5 3.4-1.5c1.3 0 2.3.5 3.2 1.6V32h3v9.4c0 1-.2 1.8-.5 2.6-.3.7-.8 1.3-1.3 1.8-1.1.9-2.4 1.3-3.9 1.3-.8 0-1.6-.1-2.5-.4-.8-.3-1.6-.6-2.2-1.1l1.2-2.3c1 .7 2 1.1 3.1 1.1s2-.3 2.6-.8c.7-.6 1-1.5 1-2.7zm-.4-3.8c0-.9-.2-1.5-.7-2-.5-.5-1.1-.7-1.8-.7s-1.3.2-1.8.7-.8 1.2-.8 2c0 .9.2 1.5.8 2.1s1.1.8 1.8.8 1.3-.3 1.8-.8c.4-.5.7-1.2.7-2.1zm11.4-2.5c-.9 0-1.6.3-2 1-.4.6-.7 1.5-.7 2.5v4.7h-3V32h3v1.4c.4-.4.9-.8 1.5-1.1s1.2-.5 1.8-.5v2.8h-.6zm11.5 8.2h-2.8v-1.3c-.8 1-1.7 1.5-2.9 1.5-1.1 0-2.1-.3-2.9-1-.8-.7-1.2-1.5-1.2-2.6s.4-1.9 1.2-2.5c.8-.5 1.9-.8 3.3-.8h2.2V36c0-1.1-.6-1.7-1.8-1.7-.5 0-1.1.1-1.7.3-.6.2-1.1.5-1.5.8l-1.3-1.9c1.4-1 3-1.5 4.8-1.5 1.3 0 2.4.3 3.2 1 .8.7 1.2 1.7 1.2 3.1v6.7zm-3-4.1v-.5h-1.9c-1.2 0-1.8.4-1.8 1.1 0 .4.1.7.4.9.3.2.7.3 1.2.3s1-.2 1.4-.5c.5-.4.7-.8.7-1.3zm12-6.9c1.3 0 2.4.5 3.4 1.6 1 1 1.5 2.4 1.5 4s-.5 2.9-1.5 4-2.1 1.6-3.4 1.6-2.4-.5-3.2-1.6v5.3h-3V32h3v1.2c.8-.9 1.9-1.4 3.2-1.4zm-3.3 5.6c0 .9.2 1.6.7 2.1.5.6 1.1.8 1.8.8s1.3-.3 1.8-.8c.5-.6.8-1.3.8-2.1 0-.9-.3-1.6-.8-2.2s-1.1-.9-1.8-.9-1.3.3-1.8.9c-.5.6-.7 1.3-.7 2.2zm13.3-.4v5.8h-3V27.9h3v5.3c.9-.9 1.9-1.4 3-1.4s2.1.4 2.9 1.2c.8.8 1.2 1.9 1.2 3.2v6.5h-3v-5.9c0-1.7-.6-2.5-1.8-2.5-.6 0-1.1.2-1.6.7s-.7 1.1-.7 2zm10-6.4c-.3-.3-.5-.8-.5-1.2s.2-.9.5-1.2.8-.5 1.2-.5.9.2 1.2.5.5.8.5 1.2-.2.9-.5 1.2-.8.5-1.2.5-.9-.1-1.2-.5zm2.7 12.2h-3V32h3v10.8zm8-2.5c1 0 1.9-.5 2.7-1.5l1.8 2c-1.4 1.4-2.9 2.2-4.5 2.2s-3-.5-4.1-1.5c-1.1-1-1.7-2.4-1.7-4s.6-3 1.7-4 2.5-1.6 4-1.6c.8 0 1.6.2 2.3.5.8.3 1.5.8 2.1 1.4l-1.6 2c-.3-.4-.8-.7-1.3-1s-1-.3-1.5-.3c-.8 0-1.5.3-2 .8-.6.5-.8 1.2-.8 2.1s.3 1.6.8 2.1 1.3.8 2.1.8zm21.6-3.3v5.8h-3v-5.9c0-.9-.1-1.5-.4-1.9-.3-.4-.7-.6-1.3-.6s-1.1.2-1.5.7-.7 1.1-.7 1.9v5.8h-3V32h3v1.2c.8-.9 1.8-1.4 2.8-1.4.7 0 1.3.2 1.9.6.6.4 1 .9 1.2 1.5.4-.7 1-1.2 1.7-1.5.7-.4 1.4-.5 2.1-.5 1.3 0 2.3.4 3.1 1.1.8.8 1.2 1.8 1.2 3.3v6.5h-3v-5.9c0-1.7-.6-2.5-1.8-2.5-.6 0-1.1.2-1.6.7s-.7 1-.7 1.9zm19.1 4.2c-1.2 1.1-2.6 1.7-4.3 1.7-1.6 0-3-.5-4-1.5s-1.6-2.4-1.6-4.1c0-1.7.5-3 1.6-4s2.4-1.5 3.8-1.5c1.5 0 2.7.4 3.8 1.3 1 .9 1.5 2.1 1.5 3.7v1.6h-7.8c.1.6.4 1.1.9 1.4.5.4 1.1.6 1.8.6 1.1 0 1.9-.4 2.6-1.1l1.7 1.9zm-2.9-6.4c-.4-.3-.9-.5-1.5-.5s-1.1.2-1.6.5-.8.8-.9 1.5h4.7c-.1-.6-.3-1.1-.7-1.5zm9.2-.6V39c0 .4.1.7.3 1 .2.2.5.3.8.3.6 0 1-.3 1.4-.8l1.1 2.1c-.9.9-1.9 1.3-3 1.3s-1.9-.3-2.6-1c-.7-.7-1.1-1.6-1.1-2.8v-5h-1.3V32h1.3v-3.2h3V32h2.6v2.2h-2.5zm14.4 8.6h-2.8v-1.3c-.8 1-1.7 1.5-2.9 1.5s-2.1-.3-2.9-1-1.2-1.5-1.2-2.6.4-1.9 1.2-2.5c.8-.5 1.9-.8 3.3-.8h2.2V36c0-1.1-.6-1.7-1.8-1.7-.5 0-1.1.1-1.7.3-.6.2-1.1.5-1.5.8l-1.3-1.9c1.4-1 3-1.5 4.8-1.5 1.3 0 2.4.3 3.2 1 .8.7 1.2 1.7 1.2 3.1v6.7zm-3.1-4.1v-.5h-1.9c-1.2 0-1.8.4-1.8 1.1 0 .4.1.7.4.9.3.2.7.3 1.2.3s1-.2 1.4-.5c.5-.4.7-.8.7-1.3zm10.1 4.2c-1.3 0-2.4-.5-3.4-1.6s-1.5-2.4-1.5-4 .5-2.9 1.5-3.9 2.1-1.5 3.4-1.5 2.4.5 3.2 1.4V28h3v14.8h-3v-1.4c-.9 1-1.9 1.5-3.2 1.5zm-1.9-5.5c0 .9.3 1.6.8 2.1.5.6 1.1.8 1.8.8s1.3-.3 1.8-.8c.5-.6.7-1.3.7-2.1 0-.9-.2-1.6-.7-2.2-.5-.6-1.1-.9-1.8-.9s-1.3.3-1.8.9-.8 1.3-.8 2.2zm20 5.4h-2.8v-1.3c-.8 1-1.7 1.5-2.9 1.5s-2.1-.3-2.9-1-1.2-1.5-1.2-2.6.4-1.9 1.2-2.5c.8-.5 1.9-.8 3.3-.8h2.2V36c0-1.1-.6-1.7-1.8-1.7-.5 0-1.1.1-1.7.3-.6.2-1.1.5-1.5.8l-1.3-1.9c1.4-1 3-1.5 4.8-1.5 1.3 0 2.4.3 3.2 1 .8.7 1.2 1.7 1.2 3.1v6.7zm-3-4.1v-.5h-1.9c-1.2 0-1.8.4-1.8 1.1 0 .4.1.7.4.9.3.2.7.3 1.2.3s1-.2 1.4-.5c.5-.4.7-.8.7-1.3zm9-4.5V39c0 .4.1.7.3 1 .2.2.5.3.8.3.6 0 1-.3 1.4-.8l1.1 2.1c-.9.9-1.9 1.3-3 1.3s-1.9-.3-2.6-1c-.7-.7-1.1-1.6-1.1-2.8v-5h-1.3V32h1.3v-3.2h3V32h2.6v2.2h-2.5zm14.4 8.6h-2.8v-1.3c-.8 1-1.7 1.5-2.9 1.5s-2.1-.3-2.9-1-1.2-1.5-1.2-2.6.4-1.9 1.2-2.5c.8-.5 1.9-.8 3.3-.8h2.2V36c0-1.1-.6-1.7-1.8-1.7-.5 0-1.1.1-1.7.3-.6.2-1.1.5-1.5.8l-1.3-1.9c1.4-1 3-1.5 4.8-1.5 1.3 0 2.4.3 3.2 1 .8.7 1.2 1.7 1.2 3.1v6.7zm-3-4.1v-.5h-1.9c-1.2 0-1.8.4-1.8 1.1 0 .4.1.7.4.9.3.2.7.3 1.2.3s1-.2 1.4-.5c.5-.4.7-.8.7-1.3z"/></svg>