<svg xmlns="http://www.w3.org/2000/svg" viewBox="0 0 355.3 50"><path d="M27.144.038c-6.6 0-11.9 5.3-11.9 11.9 0 4.7 2.7 8.7 6.6 10.7 1.2.6-.1 2.1-1 1.1-2.2-2.5-5.4-4-8.9-4-6.6 0-11.9 5.3-11.9 11.9s5.3 11.9 11.9 11.9c6.5 0 11.9-5.3 11.9-11.8 0-1.2 1.8-1.3 1.8.3 0 2.4-2.4 15.4-3.6 17.9 1.4-.3 3.7-.6 5.1-.6 1.4 0 3.7.3 5.1.6-1.3-2.5-3.6-15.5-3.6-17.9 0-1.6 1.8-1.4 1.8-.3.1 6.5 5.4 11.8 11.9 11.8 6.6 0 11.9-5.3 11.9-11.9s-5.3-11.9-11.9-11.9c-3.6 0-6.7 1.6-8.9 4-.9 1-2.2-.5-1-1.1 3.9-1.9 6.6-6 6.6-10.7 0-6.6-5.4-11.9-11.9-11.9zM83.7 34.4c3.1 0 5.6-1.2 7.5-3.6l4 4.1c-3.2 3.6-6.9 5.4-11.2 5.4-4.3 0-7.9-1.4-10.6-4.1-2.8-2.7-4.2-6.2-4.2-10.3s1.4-7.6 4.3-10.4 6.3-4.2 10.4-4.2c4.6 0 8.4 1.7 11.5 5.2l-3.9 4.4c-2-2.5-4.4-3.7-7.4-3.7-2.3 0-4.4.8-6 2.3-1.7 1.5-2.5 3.6-2.5 6.2s.8 4.7 2.4 6.3c1.6 1.6 3.5 2.4 5.7 2.4zm15.8 5.5v-28h6.2v22.4h11.9v5.6H99.5zm28.8-7.2c1 1.3 2.4 1.9 4.2 1.9 1.8 0 3.2-.6 4.2-1.9 1-1.3 1.5-3.1 1.5-5.3V11.9h6.2v15.6c0 4.1-1.1 7.2-3.4 9.3-2.2 2.2-5.1 3.3-8.6 3.3s-6.4-1.1-8.6-3.3c-2.3-2.2-3.4-5.3-3.4-9.3V11.9h6.2v15.4c.2 2.3.7 4.1 1.7 5.4zm34.7 7.2h-12.2v-28h10.9c1.9 0 3.5.2 4.9.7s2.4 1.1 3.1 1.8c1.3 1.4 1.9 3.1 1.9 4.9 0 2.2-.7 3.8-2.1 4.9-.5.4-.8.6-1 .7s-.5.2-1 .5c1.7.4 3.1 1.2 4.1 2.3s1.5 2.7 1.5 4.4c0 1.9-.7 3.7-2 5.2-1.6 1.7-4.3 2.6-8.1 2.6zm-6-16.6h3c1.7 0 3-.2 3.9-.6.8-.4 1.3-1.2 1.3-2.4s-.4-2.1-1.2-2.5c-.8-.4-2.1-.6-3.9-.6h-3v6.1zm0 11.3h4.3c1.8 0 3.1-.2 4-.7.9-.4 1.3-1.3 1.3-2.6s-.5-2.1-1.4-2.6c-.9-.4-2.5-.6-4.5-.6H157v6.5zm27.5-17.1c-.6.5-.9 1.1-.9 2 0 .8.4 1.5 1.1 1.9.7.5 2.4 1 5.1 1.7s4.7 1.6 6.2 2.9c1.5 1.3 2.2 3.2 2.2 5.7s-.9 4.5-2.8 6.1c-1.9 1.6-4.4 2.3-7.4 2.3-4.4 0-8.4-1.6-12-4.9l3.7-4.6c3 2.6 5.8 4 8.4 4 1.1 0 2-.2 2.7-.7s1-1.2 1-2-.3-1.5-1-2-2.1-1-4.1-1.5c-3.3-.8-5.6-1.8-7.1-3s-2.3-3.2-2.3-5.8 1-4.7 2.9-6.1c1.9-1.4 4.3-2.2 7.1-2.2 1.9 0 3.7.3 5.6 1 1.9.6 3.5 1.5 4.9 2.7l-3.2 4.6c-2.4-1.8-4.9-2.8-7.5-2.8-1.2 0-2 .2-2.6.7zm41.4.5c2.5 0 4.7 1 6.7 3.1s2.9 4.7 2.9 7.9-1 5.8-2.9 8c-2 2.1-4.3 3.2-6.9 3.2s-4.7-1.1-6.3-3.2v10.6h-6V18.4h6v2.4c1.8-1.9 4-2.8 6.5-2.8zm-6.6 11.2c0 1.7.5 3.2 1.5 4.3 1 1.1 2.2 1.7 3.5 1.7s2.6-.6 3.6-1.7 1.6-2.5 1.6-4.3-.5-3.2-1.5-4.4c-1-1.2-2.2-1.8-3.6-1.8s-2.6.6-3.6 1.7-1.5 2.7-1.5 4.5zm31.7-5.5c-1.8 0-3.1.6-4 1.9s-1.3 2.9-1.3 5v9.3h-6V18.4h6v2.8c.8-.9 1.7-1.6 2.9-2.2 1.2-.6 2.3-.9 3.5-1v5.6H251zm26.1 5.4c0 3.1-1.1 5.7-3.2 7.9-2.2 2.1-4.9 3.2-8.1 3.2-3.3 0-6-1.1-8.1-3.2-2.2-2.1-3.2-4.8-3.2-7.9s1.1-5.8 3.2-7.9c2.2-2.1 4.9-3.2 8.1-3.2 3.3 0 6 1.1 8.1 3.2 2.1 2.2 3.2 4.8 3.2 7.9zm-16.8 0c0 1.8.5 3.2 1.5 4.3 1 1.1 2.3 1.7 3.8 1.7 1.6 0 2.8-.6 3.8-1.7s1.5-2.5 1.5-4.3-.5-3.2-1.5-4.3-2.3-1.7-3.8-1.7c-1.6 0-2.8.6-3.8 1.7s-1.5 2.6-1.5 4.3zM282 40.3v-22h6v22.4c0 2.3-.7 4.2-2.1 5.6-1.4 1.4-3.2 2-5.2 2s-4-.9-5.9-2.6l2.8-4.4c.8.9 1.7 1.4 2.7 1.4.5 0 1-.2 1.3-.6.2-.4.4-1 .4-1.8zm.5-24.7c-.7-.7-1-1.5-1-2.5s.3-1.8 1-2.5 1.5-1 2.5-1 1.8.3 2.5 1 1 1.5 1 2.5-.3 1.8-1 2.5-1.5 1-2.5 1-1.8-.3-2.5-1zm29.4 21.2c-2.4 2.3-5.3 3.4-8.5 3.4-3.3 0-6-1-8.1-3-2.1-2-3.2-4.7-3.2-8.1 0-3.4 1.1-6.1 3.3-8.1 2.2-2 4.7-3 7.7-3s5.5.9 7.5 2.7c2.1 1.8 3.1 4.2 3.1 7.4v3.2H298c.2 1.2.8 2.1 1.8 2.9 1 .7 2.2 1.1 3.5 1.1 2.1 0 3.8-.7 5.2-2.1l3.4 3.6zM306.1 24c-.8-.7-1.8-1-3-1s-2.3.4-3.3 1.1c-1 .7-1.6 1.7-1.7 2.9h9.4c-.1-1.3-.6-2.3-1.4-3zm22 10.9c2 0 3.8-1 5.4-3l3.6 4c-2.8 2.9-5.8 4.3-9 4.3s-6-1-8.2-3.1c-2.2-2-3.3-4.7-3.3-8s1.1-6 3.4-8c2.3-2.1 4.9-3.1 8-3.1 1.5 0 3.1.3 4.7 1 1.6.6 3 1.6 4.2 2.8l-3.1 4.1c-.7-.8-1.5-1.5-2.5-1.9-1-.5-2-.7-3-.7-1.6 0-2.9.5-4.1 1.5s-1.7 2.5-1.7 4.3c0 1.8.6 3.2 1.7 4.3s2.4 1.5 3.9 1.5zm20-12.2v9.6c0 .8.2 1.5.6 1.9.4.5.9.7 1.5.7 1.1 0 2.1-.5 2.8-1.5l2.2 4.2c-1.9 1.7-3.8 2.6-5.9 2.6s-3.8-.7-5.2-2-2.1-3.2-2.1-5.6v-9.9h-2.5v-4.3h2.5V12h6v6.4h5.2v4.3h-5.1z"/></svg>