<?xml version="1.0" encoding="utf-8"?>
<!-- Generator: Adobe Illustrator 21.1.0, SVG Export Plug-In . SVG Version: 6.00 Build 0)  -->
<svg version="1.0" id="Layer_1" xmlns="http://www.w3.org/2000/svg" xmlns:xlink="http://www.w3.org/1999/xlink" x="0px" y="0px"
	 viewBox="0 0 303.7 50" style="enable-background:new 0 0 303.7 50;" xml:space="preserve">
<g id="layer1_17_" transform="translate(-288.15635,-348.0625)">
	<path id="path3211_17_" d="M315.3,348.1c-6.6,0-11.9,5.3-11.9,11.9c0,4.7,2.7,8.7,6.6,10.7c1.2,0.6-0.1,2.1-1,1.1
		c-2.2-2.5-5.4-4-8.9-4c-6.6,0-11.9,5.3-11.9,11.9c0,6.6,5.3,11.9,11.9,11.9c6.5,0,11.9-5.3,11.9-11.8c0-1.2,1.8-1.3,1.8,0.3
		c0,2.4-2.4,15.4-3.6,17.9c1.4-0.3,3.7-0.6,5.1-0.6s3.7,0.3,5.1,0.6c-1.3-2.5-3.6-15.5-3.6-17.9c0-1.6,1.8-1.4,1.8-0.3
		c0.1,6.5,5.4,11.8,11.9,11.8c6.6,0,11.9-5.3,11.9-11.9c0-6.6-5.3-11.9-11.9-11.9c-3.6,0-6.7,1.6-8.9,4c-0.9,1-2.2-0.5-1-1.1
		c3.9-1.9,6.6-6,6.6-10.7C327.2,353.4,321.9,348.1,315.3,348.1z"/>
</g>
<g>
	<path d="M76.5,18c1.5,0,2.8-0.6,3.8-1.8l2,2.1c-1.6,1.8-3.5,2.7-5.6,2.7s-3.9-0.7-5.3-2c-1.4-1.4-2.1-3.1-2.1-5.2s0.7-3.8,2.1-5.2
		c1.4-1.4,3.2-2.1,5.2-2.1c2.3,0,4.2,0.9,5.8,2.6l-1.9,2.2c-1-1.2-2.2-1.8-3.7-1.8c-1.2,0-2.2,0.4-3,1.2c-0.8,0.8-1.2,1.8-1.2,3.1
		s0.4,2.3,1.2,3.1C74.4,17.6,75.4,18,76.5,18z"/>
	<path d="M89.8,12.6c-0.9,0-1.6,0.3-2,1c-0.4,0.6-0.7,1.5-0.7,2.5v4.7h-3V10h3v1.4c0.4-0.4,0.9-0.8,1.5-1.1s1.2-0.5,1.8-0.5l0,2.8
		H89.8z"/>
	<path d="M102.9,15.4c0,1.6-0.5,2.9-1.6,3.9c-1.1,1.1-2.4,1.6-4.1,1.6c-1.6,0-3-0.5-4.1-1.6c-1.1-1.1-1.6-2.4-1.6-3.9
		c0-1.6,0.5-2.9,1.6-4s2.4-1.6,4.1-1.6c1.6,0,3,0.5,4.1,1.6S102.9,13.8,102.9,15.4z M94.6,15.4c0,0.9,0.2,1.6,0.8,2.1
		c0.5,0.6,1.1,0.8,1.9,0.8c0.8,0,1.4-0.3,1.9-0.8c0.5-0.6,0.8-1.3,0.8-2.1s-0.2-1.6-0.8-2.2c-0.5-0.6-1.1-0.8-1.9-0.8
		c-0.8,0-1.4,0.3-1.9,0.8C94.8,13.8,94.6,14.5,94.6,15.4z"/>
	<path d="M113.1,17.4c0,1.1-0.4,1.9-1.2,2.6c-0.8,0.6-1.8,1-3,1c-0.8,0-1.6-0.1-2.5-0.4c-0.9-0.3-1.6-0.7-2.3-1.3l1.3-1.9
		c1.1,0.9,2.3,1.3,3.6,1.3c0.4,0,0.7-0.1,0.9-0.2c0.2-0.2,0.3-0.4,0.3-0.6s-0.2-0.5-0.5-0.7c-0.3-0.2-0.8-0.4-1.4-0.6
		c-0.6-0.2-1-0.3-1.4-0.5c-0.3-0.1-0.7-0.3-1.1-0.6c-0.8-0.5-1.2-1.3-1.2-2.2s0.4-1.8,1.2-2.4c0.8-0.6,1.8-0.9,3.1-0.9
		c1.3,0,2.5,0.4,3.8,1.3l-1.1,2c-0.9-0.6-1.9-1-2.8-1c-0.9,0-1.4,0.3-1.4,0.8c0,0.3,0.1,0.5,0.4,0.7c0.3,0.2,0.8,0.3,1.5,0.6
		c0.7,0.2,1.2,0.4,1.5,0.5c0.3,0.1,0.6,0.3,1,0.5C112.7,15.6,113.1,16.3,113.1,17.4z"/>
	<path d="M123.4,17.4c0,1.1-0.4,1.9-1.2,2.6c-0.8,0.6-1.8,1-3,1c-0.8,0-1.6-0.1-2.5-0.4c-0.9-0.3-1.6-0.7-2.3-1.3l1.3-1.9
		c1.1,0.9,2.3,1.3,3.6,1.3c0.4,0,0.7-0.1,0.9-0.2c0.2-0.2,0.3-0.4,0.3-0.6s-0.2-0.5-0.5-0.7c-0.3-0.2-0.8-0.4-1.4-0.6
		c-0.6-0.2-1-0.3-1.4-0.5c-0.3-0.1-0.7-0.3-1.1-0.6c-0.8-0.5-1.2-1.3-1.2-2.2s0.4-1.8,1.2-2.4c0.8-0.6,1.8-0.9,3.1-0.9
		c1.3,0,2.5,0.4,3.8,1.3l-1.1,2c-0.9-0.6-1.9-1-2.8-1c-0.9,0-1.4,0.3-1.4,0.8c0,0.3,0.1,0.5,0.4,0.7c0.3,0.2,0.8,0.3,1.5,0.6
		c0.7,0.2,1.2,0.4,1.5,0.5c0.3,0.1,0.6,0.3,1,0.5C123,15.6,123.4,16.3,123.4,17.4z"/>
	<path d="M125.3,16.1v-2.7h7.1v2.7H125.3z"/>
	<path d="M138.2,20.8h-3V5.9h3V20.8z"/>
	<path d="M141.3,8.6c-0.3-0.3-0.5-0.8-0.5-1.2s0.2-0.9,0.5-1.2c0.3-0.3,0.8-0.5,1.2-0.5s0.9,0.2,1.2,0.5c0.3,0.3,0.5,0.8,0.5,1.2
		s-0.2,0.9-0.5,1.2c-0.3,0.3-0.8,0.5-1.2,0.5S141.6,9,141.3,8.6z M144,20.8h-3V10h3V20.8z"/>
	<path d="M149.9,14.8v6h-3V10h3v1.2c0.9-0.9,1.9-1.4,3.1-1.4s2.1,0.4,2.8,1.2c0.8,0.8,1.2,1.9,1.2,3.2v6.5h-3v-6.1
		c0-1.7-0.6-2.5-1.8-2.5c-0.6,0-1.1,0.2-1.6,0.7S149.9,13.9,149.9,14.8z"/>
	<path d="M167.5,18.9c-0.9,1.1-2.1,1.6-3.5,1.6c-1.4,0-2.6-0.5-3.6-1.4s-1.5-2.2-1.5-3.8c0-1.6,0.5-2.9,1.5-3.9c1-1,2.1-1.5,3.4-1.5
		c1.3,0,2.3,0.5,3.2,1.6V10h3v9.4c0,1-0.2,1.8-0.5,2.6c-0.3,0.7-0.8,1.3-1.3,1.8c-1.1,0.9-2.4,1.3-3.9,1.3c-0.8,0-1.6-0.1-2.5-0.4
		s-1.6-0.6-2.2-1.1l1.2-2.3c1,0.7,2,1.1,3.1,1.1c1.1,0,2-0.3,2.6-0.8S167.5,20.1,167.5,18.9z M167.1,15.1c0-0.9-0.2-1.5-0.7-2
		c-0.5-0.5-1.1-0.7-1.8-0.7s-1.3,0.2-1.8,0.7c-0.5,0.5-0.8,1.2-0.8,2s0.2,1.5,0.8,2.1c0.5,0.5,1.1,0.8,1.8,0.8
		c0.7,0,1.3-0.3,1.8-0.8C166.9,16.7,167.1,16,167.1,15.1z"/>
	<path d="M179.8,15.8V10h3v10.8h-3v-1.4c-0.7,1.1-1.7,1.6-2.9,1.6c-1.2,0-2.2-0.4-3-1.1s-1.2-1.8-1.2-3.3V10h3v5.9
		c0,1.7,0.6,2.5,1.8,2.5c0.6,0,1.1-0.2,1.6-0.7C179.6,17.3,179.8,16.6,179.8,15.8z"/>
	<path d="M194.8,20.8H192v-1.3c-0.8,1-1.7,1.5-2.9,1.5s-2.1-0.3-2.9-1s-1.2-1.5-1.2-2.6c0-1.1,0.4-1.9,1.2-2.5
		c0.8-0.5,1.9-0.8,3.3-0.8h2.2v-0.1c0-1.1-0.6-1.7-1.8-1.7c-0.5,0-1.1,0.1-1.7,0.3c-0.6,0.2-1.1,0.5-1.5,0.8l-1.3-1.9
		c1.4-1,3-1.5,4.8-1.5c1.3,0,2.4,0.3,3.2,1c0.8,0.7,1.2,1.7,1.2,3.1V20.8z M191.8,16.7v-0.5h-1.9c-1.2,0-1.8,0.4-1.8,1.1
		c0,0.4,0.1,0.7,0.4,0.9c0.3,0.2,0.7,0.3,1.2,0.3s1-0.2,1.4-0.5C191.6,17.6,191.8,17.2,191.8,16.7z"/>
	<path d="M200.5,20.8h-3V5.9h3V20.8z"/>
	<path d="M216.7,17.4c0,1.1-0.4,1.9-1.2,2.6c-0.8,0.6-1.8,1-3,1c-0.8,0-1.6-0.1-2.5-0.4c-0.9-0.3-1.6-0.7-2.3-1.3l1.3-1.9
		c1.1,0.9,2.3,1.3,3.6,1.3c0.4,0,0.7-0.1,0.9-0.2c0.2-0.2,0.3-0.4,0.3-0.6s-0.2-0.5-0.5-0.7c-0.3-0.2-0.8-0.4-1.4-0.6
		c-0.6-0.2-1-0.3-1.4-0.5c-0.3-0.1-0.7-0.3-1.1-0.6c-0.8-0.5-1.2-1.3-1.2-2.2s0.4-1.8,1.2-2.4s1.8-0.9,3.1-0.9s2.5,0.4,3.8,1.3
		l-1.1,2c-0.9-0.6-1.9-1-2.8-1s-1.4,0.3-1.4,0.8c0,0.3,0.1,0.5,0.4,0.7s0.8,0.3,1.5,0.6c0.7,0.2,1.2,0.4,1.5,0.5
		c0.3,0.1,0.6,0.3,1,0.5C216.4,15.6,216.7,16.3,216.7,17.4z"/>
	<path d="M228.2,19.2c-1.2,1.1-2.6,1.7-4.3,1.7c-1.6,0-3-0.5-4-1.5c-1.1-1-1.6-2.4-1.6-4s0.5-3,1.6-4c1.1-1,2.4-1.5,3.8-1.5
		c1.5,0,2.7,0.4,3.8,1.3c1,0.9,1.5,2.1,1.5,3.7v1.6h-7.8c0.1,0.6,0.4,1.1,0.9,1.4c0.5,0.4,1.1,0.6,1.8,0.6c1.1,0,1.9-0.4,2.6-1.1
		L228.2,19.2z M225.3,12.8c-0.4-0.3-0.9-0.5-1.5-0.5c-0.6,0-1.1,0.2-1.6,0.5c-0.5,0.4-0.8,0.8-0.9,1.5h4.7
		C226,13.7,225.7,13.2,225.3,12.8z"/>
	<path d="M240.3,20.8h-2.8v-1.3c-0.8,1-1.7,1.5-2.9,1.5s-2.1-0.3-2.9-1s-1.2-1.5-1.2-2.6c0-1.1,0.4-1.9,1.2-2.5
		c0.8-0.5,1.9-0.8,3.3-0.8h2.2v-0.1c0-1.1-0.6-1.7-1.8-1.7c-0.5,0-1.1,0.1-1.7,0.3c-0.6,0.2-1.1,0.5-1.5,0.8l-1.3-1.9
		c1.4-1,3-1.5,4.8-1.5c1.3,0,2.4,0.3,3.2,1c0.8,0.7,1.2,1.7,1.2,3.1V20.8z M237.3,16.7v-0.5h-1.9c-1.2,0-1.8,0.4-1.8,1.1
		c0,0.4,0.1,0.7,0.4,0.9c0.3,0.2,0.7,0.3,1.2,0.3s1-0.2,1.4-0.5C237.1,17.6,237.3,17.2,237.3,16.7z"/>
	<path d="M248.7,12.6c-0.9,0-1.6,0.3-2,1c-0.4,0.6-0.7,1.5-0.7,2.5v4.7h-3V10h3v1.4c0.4-0.4,0.9-0.8,1.5-1.1s1.2-0.5,1.8-0.5l0,2.8
		H248.7z"/>
	<path d="M256.3,18.3c1,0,1.9-0.5,2.7-1.5l1.8,2c-1.4,1.4-2.9,2.2-4.5,2.2s-3-0.5-4.1-1.5c-1.1-1-1.7-2.4-1.7-4s0.6-3,1.7-4
		c1.1-1,2.5-1.5,4-1.5c0.8,0,1.6,0.2,2.3,0.5c0.8,0.3,1.5,0.8,2.1,1.4l-1.6,2c-0.3-0.4-0.8-0.7-1.3-1s-1-0.3-1.5-0.3
		c-0.8,0-1.5,0.3-2,0.8c-0.6,0.5-0.8,1.2-0.8,2.1c0,0.9,0.3,1.6,0.8,2.1S255.5,18.3,256.3,18.3z"/>
	<path d="M265.6,15v5.8h-3V5.9h3v5.3c0.9-0.9,1.9-1.4,3-1.4s2.1,0.4,2.9,1.2c0.8,0.8,1.2,1.9,1.2,3.2v6.5h-3v-5.9
		c0-1.7-0.6-2.5-1.8-2.5c-0.6,0-1.1,0.2-1.6,0.7S265.6,14.1,265.6,15z"/>
	<path d="M291.4,15.4c0,1.6-0.5,2.9-1.6,3.9c-1.1,1.1-2.4,1.6-4.1,1.6c-1.6,0-3-0.5-4.1-1.6c-1.1-1.1-1.6-2.4-1.6-3.9
		c0-1.6,0.5-2.9,1.6-4s2.4-1.6,4.1-1.6c1.6,0,3,0.5,4.1,1.6C290.9,12.5,291.4,13.8,291.4,15.4z M283.1,15.4c0,0.9,0.2,1.6,0.8,2.1
		c0.5,0.6,1.1,0.8,1.9,0.8c0.8,0,1.4-0.3,1.9-0.8c0.5-0.6,0.8-1.3,0.8-2.1s-0.2-1.6-0.8-2.2c-0.5-0.6-1.1-0.8-1.9-0.8
		c-0.8,0-1.4,0.3-1.9,0.8C283.3,13.8,283.1,14.5,283.1,15.4z"/>
	<path d="M296.9,9.4v0.7h2.6v2.2h-2.6v8.5h-3v-8.5h-1.3v-2.2h1.3V9.4c0-1.2,0.4-2.1,1.1-2.8s1.6-1,2.7-1s2,0.4,2.9,1.2l-1.1,2
		c-0.4-0.5-0.9-0.8-1.5-0.8c-0.3,0-0.6,0.1-0.8,0.3C297,8.6,296.9,9,296.9,9.4z"/>
	<path d="M76,31.8c1.3,0,2.4,0.5,3.4,1.5c1,1,1.5,2.3,1.5,3.9c0,1.6-0.5,2.9-1.5,4s-2.1,1.6-3.4,1.6s-2.3-0.5-3.2-1.6v1.4h-3V27.9h3
		v5.3C73.6,32.3,74.7,31.8,76,31.8z M72.7,37.4c0,0.9,0.2,1.6,0.7,2.1c0.5,0.6,1.1,0.8,1.8,0.8s1.3-0.3,1.8-0.8
		c0.5-0.6,0.8-1.3,0.8-2.1c0-0.9-0.3-1.6-0.8-2.2c-0.5-0.6-1.1-0.9-1.8-0.9s-1.3,0.3-1.8,0.9S72.7,36.5,72.7,37.4z"/>
	<path d="M83.3,30.6c-0.3-0.3-0.5-0.8-0.5-1.2s0.2-0.9,0.5-1.2s0.8-0.5,1.2-0.5s0.9,0.2,1.2,0.5s0.5,0.8,0.5,1.2s-0.2,0.9-0.5,1.2
		s-0.8,0.5-1.2,0.5S83.6,31,83.3,30.6z M86,42.8h-3V32h3V42.8z"/>
	<path d="M95,31.8c1.3,0,2.4,0.5,3.4,1.5c1,1,1.5,2.3,1.5,3.9c0,1.6-0.5,2.9-1.5,4s-2.1,1.6-3.4,1.6s-2.3-0.5-3.2-1.6v1.4h-3V27.9h3
		v5.3C92.7,32.3,93.7,31.8,95,31.8z M91.8,37.4c0,0.9,0.2,1.6,0.7,2.1c0.5,0.6,1.1,0.8,1.8,0.8s1.3-0.3,1.8-0.8
		c0.5-0.6,0.8-1.3,0.8-2.1c0-0.9-0.3-1.6-0.8-2.2c-0.5-0.6-1.1-0.9-1.8-0.9s-1.3,0.3-1.8,0.9S91.8,36.5,91.8,37.4z"/>
	<path d="M105.1,42.8h-3V27.9h3V42.8z"/>
	<path d="M108.2,30.6c-0.3-0.3-0.5-0.8-0.5-1.2s0.2-0.9,0.5-1.2s0.8-0.5,1.2-0.5s0.9,0.2,1.2,0.5s0.5,0.8,0.5,1.2s-0.2,0.9-0.5,1.2
		s-0.8,0.5-1.2,0.5S108.5,31,108.2,30.6z M110.9,42.8h-3V32h3V42.8z"/>
	<path d="M124.5,37.4c0,1.6-0.5,2.9-1.6,3.9c-1.1,1.1-2.4,1.6-4.1,1.6c-1.6,0-3-0.5-4.1-1.6c-1.1-1.1-1.6-2.4-1.6-3.9
		c0-1.6,0.5-2.9,1.6-4s2.4-1.6,4.1-1.6c1.6,0,3,0.5,4.1,1.6S124.5,35.8,124.5,37.4z M116.1,37.4c0,0.9,0.2,1.6,0.8,2.1
		c0.5,0.6,1.1,0.8,1.9,0.8c0.8,0,1.4-0.3,1.9-0.8c0.5-0.6,0.8-1.3,0.8-2.1s-0.2-1.6-0.8-2.2s-1.1-0.8-1.9-0.8
		c-0.8,0-1.4,0.3-1.9,0.8S116.1,36.5,116.1,37.4z"/>
	<path d="M134.6,40.9c-0.9,1.1-2.1,1.6-3.5,1.6c-1.4,0-2.6-0.5-3.6-1.4c-1-1-1.5-2.2-1.5-3.8c0-1.6,0.5-2.9,1.5-3.9
		c1-1,2.1-1.5,3.4-1.5c1.3,0,2.3,0.5,3.2,1.6V32h3v9.4c0,1-0.2,1.8-0.5,2.6c-0.3,0.7-0.8,1.3-1.3,1.8c-1.1,0.9-2.4,1.3-3.9,1.3
		c-0.8,0-1.6-0.1-2.5-0.4c-0.8-0.3-1.6-0.6-2.2-1.1l1.2-2.3c1,0.7,2,1.1,3.1,1.1s2-0.3,2.6-0.8C134.3,43,134.6,42.1,134.6,40.9z
		 M134.2,37.1c0-0.9-0.2-1.5-0.7-2c-0.5-0.5-1.1-0.7-1.8-0.7c-0.7,0-1.3,0.2-1.8,0.7s-0.8,1.2-0.8,2c0,0.9,0.2,1.5,0.8,2.1
		s1.1,0.8,1.8,0.8c0.7,0,1.3-0.3,1.8-0.8C133.9,38.7,134.2,38,134.2,37.1z"/>
	<path d="M145.6,34.6c-0.9,0-1.6,0.3-2,1c-0.4,0.6-0.7,1.5-0.7,2.5v4.7h-3V32h3v1.4c0.4-0.4,0.9-0.8,1.5-1.1s1.2-0.5,1.8-0.5l0,2.8
		H145.6z"/>
	<path d="M157.1,42.8h-2.8v-1.3c-0.8,1-1.7,1.5-2.9,1.5c-1.1,0-2.1-0.3-2.9-1c-0.8-0.7-1.2-1.5-1.2-2.6c0-1.1,0.4-1.9,1.2-2.5
		c0.8-0.5,1.9-0.8,3.3-0.8h2.2v-0.1c0-1.1-0.6-1.7-1.8-1.7c-0.5,0-1.1,0.1-1.7,0.3c-0.6,0.2-1.1,0.5-1.5,0.8l-1.3-1.9
		c1.4-1,3-1.5,4.8-1.5c1.3,0,2.4,0.3,3.2,1c0.8,0.7,1.2,1.7,1.2,3.1V42.8z M154.1,38.7v-0.5h-1.9c-1.2,0-1.8,0.4-1.8,1.1
		c0,0.4,0.1,0.7,0.4,0.9c0.3,0.2,0.7,0.3,1.2,0.3c0.5,0,1-0.2,1.4-0.5C153.9,39.6,154.1,39.2,154.1,38.7z"/>
	<path d="M166.1,31.8c1.3,0,2.4,0.5,3.4,1.6c1,1,1.5,2.4,1.5,4s-0.5,2.9-1.5,4c-1,1.1-2.1,1.6-3.4,1.6s-2.4-0.5-3.2-1.6v5.3h-3V32h3
		v1.2C163.7,32.3,164.8,31.8,166.1,31.8z M162.8,37.4c0,0.9,0.2,1.6,0.7,2.1c0.5,0.6,1.1,0.8,1.8,0.8s1.3-0.3,1.8-0.8
		c0.5-0.6,0.8-1.3,0.8-2.1c0-0.9-0.3-1.6-0.8-2.2s-1.1-0.9-1.8-0.9c-0.7,0-1.3,0.3-1.8,0.9C163,35.8,162.8,36.5,162.8,37.4z"/>
	<path d="M176.1,37v5.8h-3V27.9h3v5.3c0.9-0.9,1.9-1.4,3-1.4s2.1,0.4,2.9,1.2c0.8,0.8,1.2,1.9,1.2,3.2v6.5h-3v-5.9
		c0-1.7-0.6-2.5-1.8-2.5c-0.6,0-1.1,0.2-1.6,0.7S176.1,36.1,176.1,37z"/>
	<path d="M186.1,30.6c-0.3-0.3-0.5-0.8-0.5-1.2s0.2-0.9,0.5-1.2s0.8-0.5,1.2-0.5s0.9,0.2,1.2,0.5s0.5,0.8,0.5,1.2s-0.2,0.9-0.5,1.2
		s-0.8,0.5-1.2,0.5S186.4,31,186.1,30.6z M188.8,42.8h-3V32h3V42.8z"/>
	<path d="M196.8,40.3c1,0,1.9-0.5,2.7-1.5l1.8,2c-1.4,1.4-2.9,2.2-4.5,2.2s-3-0.5-4.1-1.5c-1.1-1-1.7-2.4-1.7-4c0-1.6,0.6-3,1.7-4
		c1.1-1,2.5-1.6,4-1.6c0.8,0,1.6,0.2,2.3,0.5c0.8,0.3,1.5,0.8,2.1,1.4l-1.6,2c-0.3-0.4-0.8-0.7-1.3-1s-1-0.3-1.5-0.3
		c-0.8,0-1.5,0.3-2,0.8c-0.6,0.5-0.8,1.2-0.8,2.1s0.3,1.6,0.8,2.1S196,40.3,196.8,40.3z"/>
	<path d="M218.4,37v5.8h-3v-5.9c0-0.9-0.1-1.5-0.4-1.9c-0.3-0.4-0.7-0.6-1.3-0.6s-1.1,0.2-1.5,0.7s-0.7,1.1-0.7,1.9v5.8h-3V32h3v1.2
		c0.8-0.9,1.8-1.4,2.8-1.4c0.7,0,1.3,0.2,1.9,0.6c0.6,0.4,1,0.9,1.2,1.5c0.4-0.7,1-1.2,1.7-1.5c0.7-0.4,1.4-0.5,2.1-0.5
		c1.3,0,2.3,0.4,3.1,1.1c0.8,0.8,1.2,1.8,1.2,3.3v6.5h-3v-5.9c0-1.7-0.6-2.5-1.8-2.5c-0.6,0-1.1,0.2-1.6,0.7S218.4,36.1,218.4,37z"
		/>
	<path d="M237.5,41.2c-1.2,1.1-2.6,1.7-4.3,1.7c-1.6,0-3-0.5-4-1.5s-1.6-2.4-1.6-4.1c0-1.7,0.5-3,1.6-4c1.1-1,2.4-1.5,3.8-1.5
		c1.5,0,2.7,0.4,3.8,1.3c1,0.9,1.5,2.1,1.5,3.7v1.6h-7.8c0.1,0.6,0.4,1.1,0.9,1.4c0.5,0.4,1.1,0.6,1.8,0.6c1.1,0,1.9-0.4,2.6-1.1
		L237.5,41.2z M234.6,34.8c-0.4-0.3-0.9-0.5-1.5-0.5c-0.6,0-1.1,0.2-1.6,0.5s-0.8,0.8-0.9,1.5h4.7C235.2,35.7,235,35.2,234.6,34.8z"
		/>
	<path d="M243.8,34.2V39c0,0.4,0.1,0.7,0.3,1c0.2,0.2,0.5,0.3,0.8,0.3c0.6,0,1-0.3,1.4-0.8l1.1,2.1c-0.9,0.9-1.9,1.3-3,1.3
		s-1.9-0.3-2.6-1c-0.7-0.7-1.1-1.6-1.1-2.8v-5h-1.3V32h1.3v-3.2h3V32h2.6v2.2H243.8z"/>
	<path d="M258.2,42.8h-2.8v-1.3c-0.8,1-1.7,1.5-2.9,1.5s-2.1-0.3-2.9-1s-1.2-1.5-1.2-2.6c0-1.1,0.4-1.9,1.2-2.5
		c0.8-0.5,1.9-0.8,3.3-0.8h2.2v-0.1c0-1.1-0.6-1.7-1.8-1.7c-0.5,0-1.1,0.1-1.7,0.3c-0.6,0.2-1.1,0.5-1.5,0.8l-1.3-1.9
		c1.4-1,3-1.5,4.8-1.5c1.3,0,2.4,0.3,3.2,1c0.8,0.7,1.2,1.7,1.2,3.1V42.8z M255.1,38.7v-0.5h-1.9c-1.2,0-1.8,0.4-1.8,1.1
		c0,0.4,0.1,0.7,0.4,0.9c0.3,0.2,0.7,0.3,1.2,0.3s1-0.2,1.4-0.5C254.9,39.6,255.1,39.2,255.1,38.7z"/>
	<path d="M265.2,42.9c-1.3,0-2.4-0.5-3.4-1.6s-1.5-2.4-1.5-4c0-1.6,0.5-2.9,1.5-3.9c1-1,2.1-1.5,3.4-1.5s2.4,0.5,3.2,1.4v-5.3h3
		v14.8h-3v-1.4C267.5,42.4,266.5,42.9,265.2,42.9z M263.3,37.4c0,0.9,0.3,1.6,0.8,2.1c0.5,0.6,1.1,0.8,1.8,0.8
		c0.7,0,1.3-0.3,1.8-0.8c0.5-0.6,0.7-1.3,0.7-2.1c0-0.9-0.2-1.6-0.7-2.2c-0.5-0.6-1.1-0.9-1.8-0.9s-1.3,0.3-1.8,0.9
		S263.3,36.5,263.3,37.4z"/>
	<path d="M283.3,42.8h-2.8v-1.3c-0.8,1-1.7,1.5-2.9,1.5s-2.1-0.3-2.9-1s-1.2-1.5-1.2-2.6c0-1.1,0.4-1.9,1.2-2.5
		c0.8-0.5,1.9-0.8,3.3-0.8h2.2v-0.1c0-1.1-0.6-1.7-1.8-1.7c-0.5,0-1.1,0.1-1.7,0.3c-0.6,0.2-1.1,0.5-1.5,0.8l-1.3-1.9
		c1.4-1,3-1.5,4.8-1.5c1.3,0,2.4,0.3,3.2,1c0.8,0.7,1.2,1.7,1.2,3.1V42.8z M280.3,38.7v-0.5h-1.9c-1.2,0-1.8,0.4-1.8,1.1
		c0,0.4,0.1,0.7,0.4,0.9c0.3,0.2,0.7,0.3,1.2,0.3s1-0.2,1.4-0.5C280.1,39.6,280.3,39.2,280.3,38.7z"/>
	<path d="M289.3,34.2V39c0,0.4,0.1,0.7,0.3,1c0.2,0.2,0.5,0.3,0.8,0.3c0.6,0,1-0.3,1.4-0.8l1.1,2.1c-0.9,0.9-1.9,1.3-3,1.3
		s-1.9-0.3-2.6-1c-0.7-0.7-1.1-1.6-1.1-2.8v-5h-1.3V32h1.3v-3.2h3V32h2.6v2.2H289.3z"/>
	<path d="M303.7,42.8h-2.8v-1.3c-0.8,1-1.7,1.5-2.9,1.5s-2.1-0.3-2.9-1s-1.2-1.5-1.2-2.6c0-1.1,0.4-1.9,1.2-2.5
		c0.8-0.5,1.9-0.8,3.3-0.8h2.2v-0.1c0-1.1-0.6-1.7-1.8-1.7c-0.5,0-1.1,0.1-1.7,0.3c-0.6,0.2-1.1,0.5-1.5,0.8l-1.3-1.9
		c1.4-1,3-1.5,4.8-1.5c1.3,0,2.4,0.3,3.2,1c0.8,0.7,1.2,1.7,1.2,3.1V42.8z M300.7,38.7v-0.5h-1.9c-1.2,0-1.8,0.4-1.8,1.1
		c0,0.4,0.1,0.7,0.4,0.9c0.3,0.2,0.7,0.3,1.2,0.3s1-0.2,1.4-0.5C300.5,39.6,300.7,39.2,300.7,38.7z"/>
</g>
<g>
</g>
<g>
</g>
<g>
</g>
<g>
</g>
<g>
</g>
<g>
</g>
<g>
</g>
<g>
</g>
<g>
</g>
<g>
</g>
<g>
</g>
<g>
</g>
<g>
</g>
<g>
</g>
<g>
</g>
</svg>
