<svg xmlns="http://www.w3.org/2000/svg" viewBox="0 0 239.5 56.3"><path d="M28.744.238c-7 0-12.6 5.7-12.6 12.6 0 5 2.9 9.3 7 11.3 1.3.6-.1 2.2-1 1.2-2.3-2.6-5.7-4.3-9.5-4.3-7 0-12.6 5.7-12.6 12.6s5.7 12.6 12.6 12.6c6.9 0 12.6-5.6 12.6-12.5 0-1.2 1.9-1.4 1.9.3 0 2.6-2.5 16.4-3.8 19 1.5-.4 3.9-.7 5.4-.7 1.5 0 3.9.3 5.4.7-1.3-2.6-3.8-16.4-3.8-19 0-1.6 1.9-1.5 1.9-.3.1 6.9 5.7 12.5 12.6 12.5 7 0 12.6-5.7 12.6-12.6s-5.7-12.6-12.6-12.6c-3.8 0-7.1 1.6-9.5 4.3-.9 1-2.3-.6-1-1.2 4.2-2.1 7-6.4 7-11.3 0-7-5.6-12.6-12.6-12.6zM78.7 14.6c1.8 0 3.3-.7 4.4-2.1l2.4 2.4c-1.9 2.1-4.1 3.2-6.6 3.2s-4.6-.8-6.3-2.4c-1.6-1.6-2.5-3.6-2.5-6.1s.8-4.5 2.5-6.1S76.3 1 78.8 1c2.7 0 5 1 6.8 3.1l-2.3 2.6c-1.2-1.4-2.6-2.2-4.3-2.2-1.4 0-2.6.5-3.6 1.4-1 .9-1.5 2.1-1.5 3.7 0 1.5.5 2.8 1.4 3.7.9.8 2 1.3 3.4 1.3zm9.2 3.3V1.4h3.7v13.2h7v3.3H87.9zm17.1-4.3c.6.8 1.4 1.1 2.5 1.1 1 0 1.9-.4 2.5-1.1.6-.8.9-1.8.9-3.1V1.4h3.7v9.2c0 2.4-.7 4.2-2 5.5-1.3 1.3-3 1.9-5.1 1.9-2.1 0-3.8-.6-5.1-1.9-1.3-1.3-2-3.1-2-5.5V1.4h3.7v9.1c-.1 1.3.2 2.3.9 3.1zm20.4 4.3h-7.2V1.4h6.4c1.1 0 2.1.1 2.9.4.8.3 1.4.6 1.8 1.1.7.8 1.1 1.8 1.1 2.9 0 1.3-.4 2.3-1.3 2.9-.3.2-.5.4-.6.4s-.3.1-.6.3c1 .2 1.8.7 2.4 1.4.6.7.9 1.6.9 2.6 0 1.1-.4 2.2-1.2 3-.7 1-2.3 1.5-4.6 1.5zM121.9 8h1.7c1 0 1.8-.1 2.3-.3.5-.2.7-.7.7-1.4s-.2-1.2-.7-1.5c-.5-.2-1.2-.4-2.3-.4h-1.8V8zm0 6.8h2.5c1.1 0 1.8-.1 2.4-.4.5-.3.8-.8.8-1.5 0-.8-.3-1.3-.8-1.5-.6-.2-1.5-.4-2.7-.4h-2.2v3.8zm16.2-10.1c-.4.3-.5.7-.5 1.2s.2.9.6 1.1c.4.3 1.4.6 3 1s2.8 1 3.6 1.7c.9.8 1.3 1.9 1.3 3.4s-.6 2.7-1.7 3.6c-1.1.9-2.6 1.4-4.4 1.4-2.6 0-5-1-7.1-2.9l2.2-2.7c1.8 1.6 3.4 2.3 4.9 2.3.7 0 1.2-.1 1.6-.4.4-.3.6-.7.6-1.2s-.2-.9-.6-1.2c-.4-.3-1.2-.6-2.4-.9-1.9-.5-3.3-1.1-4.2-1.8-.9-.7-1.3-1.9-1.3-3.4s.6-2.8 1.7-3.6c1.1-.9 2.5-1.3 4.2-1.3 1.1 0 2.2.2 3.3.6 1.1.4 2.1.9 2.9 1.6L144 5.9c-1.4-1.1-2.9-1.6-4.4-1.6-.7-.1-1.2.1-1.5.4zm24.5.3c1.5 0 2.8.6 4 1.9 1.2 1.2 1.7 2.8 1.7 4.7 0 1.9-.6 3.4-1.7 4.7-1.2 1.3-2.5 1.9-4.1 1.9s-2.8-.6-3.7-1.9v6.3h-3.5V5.2h3.5v1.4c1-1.1 2.3-1.6 3.8-1.6zm-3.9 6.5c0 1 .3 1.9.9 2.5.6.7 1.3 1 2.1 1s1.5-.3 2.1-1c.6-.7.9-1.5.9-2.5s-.3-1.9-.9-2.6c-.6-.7-1.3-1-2.1-1s-1.5.3-2.1 1-.9 1.6-.9 2.6zm18.7-3.2c-1.1 0-1.8.4-2.4 1.1-.5.7-.8 1.7-.8 3v5.5h-3.5V5.2h3.5v1.7c.5-.5 1-1 1.7-1.3.7-.4 1.4-.6 2.1-.6v3.3h-.6zm15.3 3.2c0 1.8-.6 3.4-1.9 4.7-1.3 1.3-2.9 1.9-4.8 1.9s-3.5-.6-4.8-1.9c-1.3-1.3-1.9-2.8-1.9-4.7s.6-3.4 1.9-4.7c1.3-1.3 2.9-1.9 4.8-1.9s3.5.6 4.8 1.9c1.3 1.3 1.9 2.9 1.9 4.7zm-9.8 0c0 1 .3 1.9.9 2.5.6.7 1.3 1 2.3 1 .9 0 1.7-.3 2.3-1 .6-.7.9-1.5.9-2.5s-.3-1.9-.9-2.5c-.6-.7-1.3-1-2.3-1-.9 0-1.7.3-2.3 1-.6.6-.9 1.5-.9 2.5zm12.8 6.6v-13h3.5v13.2c0 1.4-.4 2.5-1.3 3.3-.8.8-1.9 1.2-3.1 1.2-1.2 0-2.4-.5-3.5-1.5l1.6-2.6c.5.6 1 .8 1.6.8.3 0 .6-.1.8-.4.3-.1.4-.5.4-1zm.2-14.5c-.4-.4-.6-.9-.6-1.5s.2-1.1.6-1.5c.4-.4.9-.6 1.5-.6s1.1.2 1.5.6c.4.4.6.9.6 1.5s-.2 1.1-.6 1.5c-.4.4-.9.6-1.5.6s-1-.2-1.5-.6zM213.3 16c-1.4 1.4-3.1 2-5 2s-3.5-.6-4.8-1.8c-1.3-1.2-1.9-2.8-1.9-4.8s.6-3.6 1.9-4.8c1.3-1.2 2.8-1.8 4.5-1.8 1.7 0 3.2.5 4.4 1.6 1.2 1.1 1.8 2.5 1.8 4.3v1.9h-9.3c.1.7.5 1.3 1.1 1.7.6.4 1.3.7 2.1.7 1.2 0 2.3-.4 3.1-1.3l2.1 2.3zm-3.4-7.5c-.5-.4-1.1-.6-1.8-.6s-1.3.2-1.9.6c-.6.4-.9 1-1 1.7h5.6c-.1-.7-.4-1.3-.9-1.7zm13 6.4c1.2 0 2.2-.6 3.2-1.8l2.1 2.4c-1.6 1.7-3.4 2.5-5.3 2.5s-3.5-.6-4.8-1.8c-1.3-1.2-2-2.8-2-4.7 0-1.9.7-3.5 2-4.7 1.3-1.2 2.9-1.8 4.7-1.8.9 0 1.8.2 2.8.6.9.4 1.8.9 2.5 1.7l-1.8 2.4c-.4-.5-.9-.9-1.5-1.1-.6-.3-1.2-.4-1.8-.4-.9 0-1.7.3-2.4.9-.7.6-1 1.4-1 2.5s.3 1.9 1 2.5c.6.5 1.4.8 2.3.8zm11.8-7.2v5.7c0 .5.1.9.4 1.1.3.3.6.4.9.4.7 0 1.2-.3 1.7-.9l1.3 2.5c-1.1 1-2.3 1.5-3.5 1.5-1.2 0-2.3-.4-3.1-1.2-.8-.8-1.3-1.9-1.3-3.3V7.7h-1.5V5.2h1.5V1.4h3.6v3.8h3.1v2.5h-3.1zM75.9 35.4c1.1 0 2-.4 2.7-1.3l1.4 1.5c-1.1 1.3-2.5 1.9-4 1.9s-2.8-.5-3.8-1.5-1.5-2.2-1.5-3.7.5-2.7 1.5-3.7 2.3-1.5 3.8-1.5c1.7 0 3 .6 4.1 1.9l-1.4 1.6c-.7-.9-1.6-1.3-2.7-1.3-.8 0-1.6.3-2.2.8-.6.6-.9 1.3-.9 2.2s.3 1.7.8 2.3c.7.5 1.4.8 2.2.8zm9.6-3.8c-.6 0-1.1.2-1.4.7-.3.5-.5 1.1-.5 1.8v3.4h-2.2v-7.7h2.2v1c.3-.3.6-.6 1-.8.4-.2.8-.3 1.3-.3v2h-.4zm9.5 1.9c0 1.1-.4 2.1-1.2 2.8-.8.8-1.8 1.2-2.9 1.2-1.2 0-2.2-.4-2.9-1.2-.8-.8-1.2-1.7-1.2-2.8 0-1.1.4-2.1 1.2-2.8.8-.8 1.8-1.2 2.9-1.2 1.2 0 2.2.4 2.9 1.2.8.8 1.2 1.7 1.2 2.8zm-6.1 0c0 .6.2 1.1.5 1.5.4.4.8.6 1.4.6.6 0 1-.2 1.4-.6.4-.4.5-.9.5-1.5s-.2-1.2-.5-1.6c-.4-.4-.8-.6-1.4-.6-.6 0-1 .2-1.4.6-.3.5-.5 1-.5 1.6zm13.3 1.5c0 .8-.3 1.4-.8 1.8-.6.5-1.3.7-2.1.7-.6 0-1.2-.1-1.8-.3-.6-.2-1.2-.5-1.7-.9l1-1.4c.8.6 1.7.9 2.6.9.3 0 .5-.1.7-.2.2-.1.2-.3.2-.4s-.1-.4-.3-.5c-.2-.2-.6-.3-1-.4-.4-.1-.8-.2-1-.3-.2-.1-.5-.2-.8-.4-.6-.4-.9-.9-.9-1.6 0-.7.3-1.3.9-1.7.6-.5 1.3-.7 2.2-.7.9 0 1.8.3 2.7.9l-.8 1.4c-.7-.5-1.3-.7-2-.7s-1 .2-1 .5c0 .2.1.4.3.5.2.1.6.2 1.1.4.5.2.8.3 1 .4.2.1.5.2.7.4.6.3.8.8.8 1.6zm7.5 0c0 .8-.3 1.4-.8 1.8-.6.5-1.3.7-2.1.7-.6 0-1.2-.1-1.8-.3-.6-.2-1.2-.5-1.7-.9l1-1.4c.8.6 1.7.9 2.6.9.3 0 .5-.1.7-.2.2-.1.2-.3.2-.4s-.1-.4-.3-.5c-.2-.2-.6-.3-1-.4-.4-.1-.8-.2-1-.3-.2-.1-.5-.2-.8-.4-.6-.4-.9-.9-.9-1.6 0-.7.3-1.3.9-1.7.6-.5 1.3-.7 2.2-.7.9 0 1.8.3 2.7.9l-.8 1.4c-.7-.5-1.3-.7-2-.7s-1 .2-1 .5c0 .2.1.4.3.5.2.1.6.2 1.1.4.5.2.8.3 1 .4.2.1.5.2.7.4.5.3.8.8.8 1.6zm1.4-1v-1.9h5.1V34h-5.1zm9.3 3.4h-2.2V26.7h2.2v10.7zm2.2-8.7c-.2-.2-.4-.5-.4-.9s.1-.7.4-.9c.2-.2.5-.4.9-.4s.7.1.9.4c.2.2.4.5.4.9s-.1.7-.4.9c-.2.2-.5.4-.9.4s-.7-.2-.9-.4zm2 8.7h-2.2v-7.7h2.2v7.7zm4.1-4.3v4.3h-2.2v-7.7h2.2v.9c.7-.7 1.4-1 2.2-1s1.5.3 2.1.9c.6.6.8 1.3.8 2.3v4.7h-2.2V33c0-1.2-.4-1.8-1.3-1.8-.4 0-.8.2-1.1.5-.3.3-.5.8-.5 1.4zm12.8 3c-.7.8-1.5 1.1-2.5 1.1s-1.9-.3-2.6-1-1-1.6-1-2.8c0-1.1.4-2.1 1.1-2.8.7-.7 1.5-1.1 2.5-1.1.9 0 1.7.4 2.3 1.1v-1h2.2v6.8c0 .7-.1 1.3-.4 1.8-.2.5-.6 1-1 1.3-.8.6-1.7 1-2.8 1-.6 0-1.2-.1-1.8-.3-.6-.2-1.1-.5-1.6-.8l.8-1.6c.7.5 1.5.8 2.3.8.8 0 1.4-.2 1.9-.6.3-.4.6-1.1.6-1.9zm-.3-2.7c0-.6-.2-1.1-.5-1.5-.3-.4-.8-.5-1.3-.5s-.9.2-1.3.5c-.4.4-.6.8-.6 1.5s.2 1.1.5 1.5c.4.4.8.6 1.3.6s1-.2 1.3-.6c.4-.4.6-.9.6-1.5zm9.1.4v-4.2h2.2v7.7h-2.2v-1c-.5.8-1.2 1.1-2.1 1.1-.8 0-1.6-.3-2.1-.8-.6-.5-.9-1.3-.9-2.4v-4.7h2.2v4.2c0 1.2.4 1.8 1.3 1.8.4 0 .8-.2 1.1-.5.4-.1.5-.6.5-1.2zm10.8 3.6h-2v-.9c-.6.7-1.2 1.1-2.1 1.1-.8 0-1.5-.2-2.1-.7-.6-.5-.8-1.1-.8-1.9 0-.8.3-1.4.9-1.8.6-.4 1.4-.6 2.4-.6h1.6c0-.8-.4-1.2-1.3-1.2-.4 0-.8.1-1.2.2-.4.1-.8.3-1.1.6l-1-1.4c1-.7 2.2-1.1 3.5-1.1.9 0 1.7.2 2.3.7.6.5.9 1.2.9 2.2v4.8zm-2.2-3V34h-1.4c-.9 0-1.3.3-1.3.8 0 .3.1.5.3.6.2.1.5.2.9.2s.7-.1 1-.4c.4 0 .5-.4.5-.8zm6.3 3H163V26.7h2.2v10.7zm11.7-2.4c0 .8-.3 1.4-.8 1.8-.6.5-1.3.7-2.1.7-.6 0-1.2-.1-1.8-.3-.6-.2-1.2-.5-1.7-.9l1-1.4c.8.6 1.7.9 2.6.9.3 0 .5-.1.7-.2.2-.1.2-.3.2-.4s-.1-.4-.3-.5c-.2-.2-.6-.3-1-.4-.4-.1-.8-.2-1-.3-.2-.1-.5-.2-.8-.4-.6-.4-.9-.9-.9-1.6 0-.7.3-1.3.9-1.7.6-.5 1.3-.7 2.2-.7s1.8.3 2.7.9l-.8 1.4c-.7-.5-1.3-.7-2-.7s-1 .2-1 .5c0 .2.1.4.3.5.2.1.6.2 1.1.4.5.2.8.3 1 .4.2.1.5.2.7.4.5.3.8.8.8 1.6zm8.3 1.3c-.9.8-1.9 1.2-3.1 1.2-1.2 0-2.1-.4-2.9-1.1-.8-.7-1.2-1.7-1.2-2.9s.4-2.2 1.2-2.9c.8-.7 1.7-1.1 2.8-1.1 1.1 0 2 .3 2.7 1 .7.6 1.1 1.5 1.1 2.7v1.2h-5.6c.1.4.3.8.7 1 .4.3.8.4 1.3.4.8 0 1.4-.3 1.9-.8l1.1 1.3zm-2.1-4.6c-.3-.2-.7-.4-1.1-.4-.4 0-.8.1-1.2.4-.4.3-.6.6-.6 1.1h3.4c0-.5-.2-.9-.5-1.1zm10.8 5.7h-2v-.9c-.6.7-1.2 1.1-2.1 1.1-.8 0-1.5-.2-2.1-.7-.6-.5-.8-1.1-.8-1.9 0-.8.3-1.4.9-1.8.6-.4 1.4-.6 2.4-.6h1.6c0-.8-.4-1.2-1.3-1.2-.4 0-.8.1-1.2.2-.4.1-.8.3-1.1.6l-1-1.4c1-.7 2.2-1.1 3.5-1.1.9 0 1.7.2 2.3.7.6.5.9 1.2.9 2.2v4.8zm-2.2-3V34h-1.4c-.9 0-1.3.3-1.3.8 0 .3.1.5.3.6.2.1.5.2.9.2s.7-.1 1-.4c.4 0 .5-.4.5-.8zm8.2-2.8c-.6 0-1.1.2-1.4.7-.3.5-.5 1.1-.5 1.8v3.4h-2.2v-7.7h2.2v1c.3-.3.6-.6 1-.8.4-.2.8-.3 1.3-.3v2h-.4zm5.5 4c.7 0 1.4-.4 1.9-1.1l1.3 1.4c-1 1-2.1 1.6-3.2 1.6-1.2 0-2.1-.4-2.9-1.1-.8-.7-1.2-1.7-1.2-2.9s.4-2.2 1.2-2.9c.8-.7 1.8-1.1 2.9-1.1.6 0 1.1.1 1.7.3.6.2 1.1.6 1.5 1l-1.1 1.5c-.2-.3-.6-.5-.9-.7-.4-.2-.7-.2-1.1-.2-.6 0-1.1.2-1.5.6-.4.4-.6.9-.6 1.5 0 .7.2 1.2.6 1.5.3.4.8.6 1.4.6zm6.7-2.4v4.2h-2.2V26.7h2.2v3.8c.7-.7 1.4-1 2.2-1 .8 0 1.5.3 2.1.9.6.6.8 1.3.8 2.3v4.7H215v-4.2c0-1.2-.4-1.8-1.3-1.8-.4 0-.8.2-1.1.5-.3.3-.5.7-.5 1.3zm18.6.3c0 1.1-.4 2.1-1.2 2.8-.8.8-1.8 1.2-2.9 1.2-1.2 0-2.2-.4-2.9-1.2-.8-.8-1.2-1.7-1.2-2.8 0-1.1.4-2.1 1.2-2.8.8-.8 1.8-1.2 2.9-1.2 1.2 0 2.2.4 2.9 1.2.8.8 1.2 1.7 1.2 2.8zm-6 0c0 .6.2 1.1.5 1.5.4.4.8.6 1.4.6.6 0 1-.2 1.4-.6.4-.4.5-.9.5-1.5s-.2-1.2-.5-1.6c-.4-.4-.8-.6-1.4-.6-.6 0-1 .2-1.4.6-.3.5-.5 1-.5 1.6zm10-4.3v.5h1.9v1.6h-1.9v6.1h-2.2v-6.1h-.9v-1.6h.9v-.5c0-.8.3-1.5.8-2s1.2-.7 1.9-.7c.8 0 1.5.3 2.1.9l-.8 1.5c-.3-.4-.7-.5-1.1-.5-.2 0-.4.1-.5.2-.2.1-.2.3-.2.6zM75.5 45.4c.9 0 1.8.4 2.5 1.1.7.7 1.1 1.7 1.1 2.8 0 1.2-.4 2.1-1.1 2.9-.7.8-1.5 1.2-2.5 1.2-.9 0-1.7-.4-2.3-1.1v1H71V42.6h2.2v3.8c.6-.7 1.4-1 2.3-1zm-2.3 4c0 .6.2 1.1.5 1.5.4.4.8.6 1.3.6s.9-.2 1.3-.6c.4-.4.6-.9.6-1.5s-.2-1.1-.5-1.6c-.4-.4-.8-.6-1.3-.6s-.9.2-1.3.6c-.4.4-.6.9-.6 1.6zm7.6-4.9c-.2-.2-.4-.5-.4-.9s.1-.7.4-.9c.2-.2.5-.4.9-.4s.7.1.9.4c.2.2.4.5.4.9s-.1.7-.4.9c-.2.2-.5.4-.9.4s-.7-.1-.9-.4zm2 8.7h-2.2v-7.7h2.2v7.7zm6.5-7.8c.9 0 1.8.4 2.5 1.1.7.7 1.1 1.7 1.1 2.8 0 1.2-.4 2.1-1.1 2.9-.7.8-1.5 1.2-2.5 1.2s-1.7-.4-2.3-1.2v1h-2.2V42.6H87v3.8c.6-.7 1.3-1 2.3-1zm-2.4 4c0 .6.2 1.1.5 1.5.4.4.8.6 1.3.6s.9-.2 1.3-.6c.4-.4.6-.9.6-1.5s-.2-1.1-.5-1.6c-.4-.4-.8-.6-1.3-.6s-.9.2-1.3.6c-.4.4-.6.9-.6 1.6zm9.6 3.8h-2.2V42.6h2.2v10.6zm2.2-8.7c-.2-.2-.4-.5-.4-.9s.1-.7.4-.9c.2-.2.5-.4.9-.4s.7.1.9.4c.2.2.4.5.4.9s-.1.7-.4.9c-.2.2-.5.4-.9.4-.3 0-.6-.1-.9-.4zm2 8.7h-2.2v-7.7h2.2v7.7zm9.8-3.8c0 1.1-.4 2.1-1.2 2.8-.8.8-1.8 1.2-2.9 1.2-1.2 0-2.2-.4-2.9-1.2-.8-.8-1.2-1.7-1.2-2.8 0-1.1.4-2.1 1.2-2.8s1.8-1.2 2.9-1.2c1.2 0 2.2.4 2.9 1.2s1.2 1.6 1.2 2.8zm-6.1 0c0 .6.2 1.1.5 1.5.4.4.8.6 1.4.6.6 0 1-.2 1.4-.6.4-.4.5-.9.5-1.5s-.2-1.2-.5-1.6-.8-.6-1.4-.6c-.6 0-1 .2-1.4.6-.3.4-.5.9-.5 1.6zm13.3 2.5c-.7.8-1.5 1.1-2.5 1.1s-1.9-.3-2.6-1c-.7-.7-1-1.6-1-2.8 0-1.1.4-2.1 1.1-2.8.7-.7 1.5-1.1 2.5-1.1.9 0 1.7.4 2.3 1.1v-1h2.2v6.8c0 .7-.1 1.3-.4 1.8-.2.5-.6 1-1 1.3-.8.6-1.7 1-2.8 1-.6 0-1.2-.1-1.8-.3-.6-.2-1.1-.5-1.6-.8l.8-1.6c.7.5 1.5.8 2.3.8.8 0 1.4-.2 1.9-.6.4-.4.6-1 .6-1.9zm-.3-2.7c0-.6-.2-1.1-.5-1.5-.3-.4-.8-.5-1.3-.5s-.9.2-1.3.5-.6.8-.6 1.5c0 .6.2 1.1.5 1.5.4.4.8.6 1.3.6s1-.2 1.3-.6c.5-.4.6-.9.6-1.5zm8.3-1.8c-.6 0-1.1.2-1.4.7-.3.5-.5 1.1-.5 1.8v3.4h-2.2v-7.7h2.2v1c.3-.3.6-.6 1-.8.4-.2.8-.3 1.3-.3v2h-.4zm8.3 5.8h-2v-.9c-.6.7-1.2 1.1-2.1 1.1-.8 0-1.5-.2-2.1-.7-.6-.5-.8-1.1-.8-1.9 0-.8.3-1.4.9-1.8.6-.4 1.4-.6 2.4-.6h1.6c0-.8-.4-1.2-1.3-1.2-.4 0-.8.1-1.2.2-.4.1-.8.3-1.1.6l-1-1.4c1-.7 2.2-1.1 3.5-1.1.9 0 1.7.2 2.3.7.6.5.9 1.2.9 2.2v4.8zm-2.2-2.9v-.4h-1.4c-.9 0-1.3.3-1.3.8 0 .3.1.5.3.6.2.1.5.2.9.2s.7-.1 1-.4c.3-.1.5-.4.5-.8zm8.6-4.9c.9 0 1.7.4 2.4 1.1.7.8 1.1 1.7 1.1 2.8 0 1.1-.4 2.1-1.1 2.9-.7.8-1.5 1.2-2.5 1.2s-1.7-.4-2.3-1.1V56h-2.2V45.5h2.2v.9c.7-.7 1.5-1 2.4-1zm-2.3 4c0 .6.2 1.1.5 1.5.4.4.8.6 1.3.6s.9-.2 1.3-.6c.4-.4.6-.9.6-1.5s-.2-1.1-.5-1.6-.8-.6-1.3-.6-.9.2-1.3.6c-.5.4-.6.9-.6 1.6zm9.5-.3v4.2h-2.2V42.6h2.2v3.8c.7-.7 1.4-1 2.2-1s1.5.3 2.1.9c.6.6.8 1.3.8 2.3v4.7h-2.2V49c0-1.2-.4-1.8-1.3-1.8-.4 0-.8.2-1.1.5-.3.3-.5.8-.5 1.4zm7.2-4.6c-.2-.2-.4-.5-.4-.9s.1-.7.4-.9c.2-.2.5-.4.9-.4s.7.1.9.4c.2.2.4.5.4.9s-.1.7-.4.9c-.2.2-.5.4-.9.4-.3 0-.6-.1-.9-.4zm2 8.7h-2.2v-7.7h2.2v7.7zm5.7-1.8c.7 0 1.4-.4 1.9-1.1l1.3 1.4c-1 1-2.1 1.6-3.2 1.6-1.2 0-2.1-.4-2.9-1.1-.8-.7-1.2-1.7-1.2-2.9s.4-2.2 1.2-2.9c.8-.7 1.8-1.1 2.9-1.1.6 0 1.1.1 1.7.3.6.2 1.1.6 1.5 1l-1.1 1.5c-.2-.3-.6-.5-.9-.7-.4-.2-.7-.2-1.1-.2-.6 0-1.1.2-1.5.6-.4.4-.6.9-.6 1.5 0 .7.2 1.2.6 1.5.4.5.9.6 1.4.6zm15.6-2.3v4.2h-2.2V49c0-.6-.1-1.1-.3-1.4-.2-.3-.5-.4-.9-.4s-.8.2-1.1.5c-.3.3-.5.8-.5 1.4v4.2H171v-7.7h2.2v.9c.6-.7 1.3-1 2-1 .5 0 .9.1 1.3.4.4.3.7.6.9 1.1.3-.5.7-.8 1.2-1.1.5-.3 1-.4 1.5-.4.9 0 1.6.3 2.2.8.6.5.8 1.3.8 2.4v4.7H181V49c0-1.2-.4-1.8-1.3-1.8-.4 0-.8.2-1.1.5-.3.3-.5.8-.5 1.4zm13.7 3c-.9.8-1.9 1.2-3.1 1.2-1.2 0-2.1-.4-2.9-1.1-.8-.7-1.2-1.7-1.2-2.9s.4-2.2 1.2-2.9c.8-.7 1.7-1.1 2.8-1.1 1.1 0 2 .3 2.7 1 .7.6 1.1 1.5 1.1 2.6v1.2h-5.6c.1.4.3.8.7 1 .4.3.8.4 1.3.4.8 0 1.4-.3 1.9-.8l1.1 1.4zm-2-4.6c-.3-.2-.7-.4-1.1-.4-.4 0-.8.1-1.2.4-.4.3-.6.6-.6 1.1h3.4c-.1-.5-.2-.8-.5-1.1zm6.6-.4v3.5c0 .3.1.5.2.7.2.2.3.3.5.3.4 0 .7-.2 1-.5l.8 1.5c-.7.6-1.4.9-2.1.9s-1.4-.2-1.9-.7c-.5-.5-.8-1.2-.8-2v-3.6h-.9v-1.6h.9v-2.3h2.2v2.3h1.9v1.6h-1.8zm10.3 6.1h-2v-.9c-.6.7-1.2 1.1-2.1 1.1-.8 0-1.5-.2-2.1-.7s-.8-1.1-.8-1.9c0-.8.3-1.4.9-1.8.6-.4 1.4-.6 2.4-.6h1.6c0-.8-.4-1.2-1.3-1.2-.4 0-.8.1-1.2.2-.4.1-.8.3-1.1.6l-1-1.4c1-.7 2.2-1.1 3.5-1.1.9 0 1.7.2 2.3.7.6.5.9 1.2.9 2.2v4.8zm-2.1-2.9v-.4h-1.4c-.9 0-1.3.3-1.3.8 0 .3.1.5.3.6.2.1.5.2.9.2s.7-.1 1-.4c.3-.1.5-.4.5-.8zm7.2 3.1c-.9 0-1.7-.4-2.5-1.2-.7-.8-1.1-1.7-1.1-2.9s.4-2.1 1.1-2.8c.7-.7 1.5-1.1 2.5-1.1.9 0 1.7.3 2.3 1v-3.8h2.2v10.7h-2.2v-1c-.6.7-1.4 1.1-2.3 1.1zm-1.4-4c0 .6.2 1.1.6 1.5.4.4.8.6 1.3.6s.9-.2 1.3-.6c.4-.4.5-.9.5-1.5s-.2-1.2-.5-1.6c-.4-.4-.8-.6-1.3-.6s-.9.2-1.3.6-.6 1-.6 1.6zm14.4 3.8h-2v-.9c-.6.7-1.2 1.1-2.1 1.1-.8 0-1.5-.2-2.1-.7-.6-.5-.8-1.1-.8-1.9 0-.8.3-1.4.9-1.8.6-.4 1.4-.6 2.4-.6h1.6c0-.8-.4-1.2-1.3-1.2-.4 0-.8.1-1.2.2-.4.1-.8.3-1.1.6l-1-1.4c1-.7 2.2-1.1 3.5-1.1.9 0 1.7.2 2.3.7.6.5.9 1.2.9 2.2v4.8zm-2.1-2.9v-.4h-1.4c-.9 0-1.3.3-1.3.8 0 .3.1.5.3.6.2.1.5.2.9.2s.7-.1 1-.4c.3-.1.5-.4.5-.8zm6.5-3.2v3.5c0 .3.1.5.2.7.2.2.3.3.5.3.4 0 .7-.2 1-.5l.8 1.5c-.7.6-1.4.9-2.1.9s-1.4-.2-1.9-.7c-.5-.5-.8-1.2-.8-2v-3.6h-.9v-1.6h.9v-2.3h2.2v2.3h1.9v1.6h-1.8zm10.3 6.1h-2v-.9c-.6.7-1.2 1.1-2.1 1.1s-1.5-.2-2.1-.7c-.6-.5-.8-1.1-.8-1.9 0-.8.3-1.4.9-1.8.6-.4 1.4-.6 2.4-.6h1.6c0-.8-.4-1.2-1.3-1.2-.4 0-.8.1-1.2.2-.4.1-.8.3-1.1.6l-1-1.4c1-.7 2.2-1.1 3.5-1.1.9 0 1.7.2 2.3.7.6.5.9 1.2.9 2.2v4.8zm-2.2-2.9v-.4H236c-.9 0-1.3.3-1.3.8 0 .3.1.5.3.6.2.1.5.2.9.2s.7-.1 1-.4c.3-.1.4-.4.4-.8z"/></svg>