<?xml version="1.0" encoding="utf-8"?>
<!-- Generator: Adobe Illustrator 21.1.0, SVG Export Plug-In . SVG Version: 6.00 Build 0)  -->
<svg version="1.1" id="Layer_1" xmlns="http://www.w3.org/2000/svg" xmlns:xlink="http://www.w3.org/1999/xlink" x="0px" y="0px"
	 viewBox="0 0 239.5 56.3" style="enable-background:new 0 0 239.5 56.3;" xml:space="preserve">
<g id="layer1_14_" transform="translate(-288.15635,-348.0625)">
	<path id="path3211_14_" d="M316.9,348.3c-7,0-12.6,5.7-12.6,12.6c0,5,2.9,9.3,7,11.3c1.3,0.6-0.1,2.2-1,1.2
		c-2.3-2.6-5.7-4.3-9.5-4.3c-7,0-12.6,5.7-12.6,12.6s5.7,12.6,12.6,12.6c6.9,0,12.6-5.6,12.6-12.5c0-1.2,1.9-1.4,1.9,0.3
		c0,2.6-2.5,16.4-3.8,19c1.5-0.4,3.9-0.7,5.4-0.7c1.5,0,3.9,0.3,5.4,0.7c-1.3-2.6-3.8-16.4-3.8-19c0-1.6,1.9-1.5,1.9-0.3
		c0.1,6.9,5.7,12.5,12.6,12.5c7,0,12.6-5.7,12.6-12.6s-5.7-12.6-12.6-12.6c-3.8,0-7.1,1.6-9.5,4.3c-0.9,1-2.3-0.6-1-1.2
		c4.2-2.1,7-6.4,7-11.3C329.5,353.9,323.9,348.3,316.9,348.3z"/>
</g>
<g>
	<path d="M78.7,14.6c1.8,0,3.3-0.7,4.4-2.1l2.4,2.4c-1.9,2.1-4.1,3.2-6.6,3.2c-2.5,0-4.6-0.8-6.3-2.4c-1.6-1.6-2.5-3.6-2.5-6.1
		s0.8-4.5,2.5-6.1S76.3,1,78.8,1c2.7,0,5,1,6.8,3.1l-2.3,2.6c-1.2-1.4-2.6-2.2-4.3-2.2c-1.4,0-2.6,0.5-3.6,1.4
		c-1,0.9-1.5,2.1-1.5,3.7c0,1.5,0.5,2.8,1.4,3.7C76.2,14.1,77.3,14.6,78.7,14.6z"/>
	<path d="M87.9,17.9V1.4h3.7v13.2h7v3.3H87.9z"/>
	<path d="M105,13.6c0.6,0.8,1.4,1.1,2.5,1.1c1,0,1.9-0.4,2.5-1.1c0.6-0.8,0.9-1.8,0.9-3.1V1.4h3.7v9.2c0,2.4-0.7,4.2-2,5.5
		c-1.3,1.3-3,1.9-5.1,1.9c-2.1,0-3.8-0.6-5.1-1.9c-1.3-1.3-2-3.1-2-5.5V1.4h3.7v9.1C104,11.8,104.3,12.8,105,13.6z"/>
	<path d="M125.4,17.9h-7.2V1.4h6.4c1.1,0,2.1,0.1,2.9,0.4c0.8,0.3,1.4,0.6,1.8,1.1c0.7,0.8,1.1,1.8,1.1,2.9c0,1.3-0.4,2.3-1.3,2.9
		c-0.3,0.2-0.5,0.4-0.6,0.4s-0.3,0.1-0.6,0.3c1,0.2,1.8,0.7,2.4,1.4c0.6,0.7,0.9,1.6,0.9,2.6c0,1.1-0.4,2.2-1.2,3
		C129.3,17.4,127.7,17.9,125.4,17.9z M121.9,8h1.7c1,0,1.8-0.1,2.3-0.3c0.5-0.2,0.7-0.7,0.7-1.4c0-0.7-0.2-1.2-0.7-1.5
		c-0.5-0.2-1.2-0.4-2.3-0.4h-1.8V8z M121.9,14.8h2.5c1.1,0,1.8-0.1,2.4-0.4c0.5-0.3,0.8-0.8,0.8-1.5c0-0.8-0.3-1.3-0.8-1.5
		c-0.6-0.2-1.5-0.4-2.7-0.4h-2.2V14.8z"/>
	<path d="M138.1,4.7c-0.4,0.3-0.5,0.7-0.5,1.2c0,0.5,0.2,0.9,0.6,1.1c0.4,0.3,1.4,0.6,3,1s2.8,1,3.6,1.7c0.9,0.8,1.3,1.9,1.3,3.4
		c0,1.5-0.6,2.7-1.7,3.6c-1.1,0.9-2.6,1.4-4.4,1.4c-2.6,0-5-1-7.1-2.9l2.2-2.7c1.8,1.6,3.4,2.3,4.9,2.3c0.7,0,1.2-0.1,1.6-0.4
		c0.4-0.3,0.6-0.7,0.6-1.2s-0.2-0.9-0.6-1.2c-0.4-0.3-1.2-0.6-2.4-0.9c-1.9-0.5-3.3-1.1-4.2-1.8c-0.9-0.7-1.3-1.9-1.3-3.4
		s0.6-2.8,1.7-3.6c1.1-0.9,2.5-1.3,4.2-1.3c1.1,0,2.2,0.2,3.3,0.6c1.1,0.4,2.1,0.9,2.9,1.6L144,5.9c-1.4-1.1-2.9-1.6-4.4-1.6
		C138.9,4.2,138.4,4.4,138.1,4.7z"/>
	<path d="M162.6,5c1.5,0,2.8,0.6,4,1.9c1.2,1.2,1.7,2.8,1.7,4.7c0,1.9-0.6,3.4-1.7,4.7c-1.2,1.3-2.5,1.9-4.1,1.9s-2.8-0.6-3.7-1.9
		v6.3h-3.5V5.2h3.5v1.4C159.8,5.5,161.1,5,162.6,5z M158.7,11.5c0,1,0.3,1.9,0.9,2.5c0.6,0.7,1.3,1,2.1,1s1.5-0.3,2.1-1
		c0.6-0.7,0.9-1.5,0.9-2.5s-0.3-1.9-0.9-2.6c-0.6-0.7-1.3-1-2.1-1c-0.8,0-1.5,0.3-2.1,1S158.7,10.5,158.7,11.5z"/>
	<path d="M177.4,8.3c-1.1,0-1.8,0.4-2.4,1.1c-0.5,0.7-0.8,1.7-0.8,3v5.5h-3.5V5.2h3.5v1.7c0.5-0.5,1-1,1.7-1.3
		c0.7-0.4,1.4-0.6,2.1-0.6l0,3.3H177.4z"/>
	<path d="M192.7,11.5c0,1.8-0.6,3.4-1.9,4.7c-1.3,1.3-2.9,1.9-4.8,1.9c-1.9,0-3.5-0.6-4.8-1.9c-1.3-1.3-1.9-2.8-1.9-4.7
		s0.6-3.4,1.9-4.7c1.3-1.3,2.9-1.9,4.8-1.9c1.9,0,3.5,0.6,4.8,1.9C192.1,8.1,192.7,9.7,192.7,11.5z M182.9,11.5c0,1,0.3,1.9,0.9,2.5
		c0.6,0.7,1.3,1,2.3,1c0.9,0,1.7-0.3,2.3-1c0.6-0.7,0.9-1.5,0.9-2.5s-0.3-1.9-0.9-2.5c-0.6-0.7-1.3-1-2.3-1c-0.9,0-1.7,0.3-2.3,1
		C183.2,9.6,182.9,10.5,182.9,11.5z"/>
	<path d="M195.7,18.1v-13h3.5v13.2c0,1.4-0.4,2.5-1.3,3.3c-0.8,0.8-1.9,1.2-3.1,1.2c-1.2,0-2.4-0.5-3.5-1.5l1.6-2.6
		c0.5,0.6,1,0.8,1.6,0.8c0.3,0,0.6-0.1,0.8-0.4C195.6,19,195.7,18.6,195.7,18.1z M195.9,3.6c-0.4-0.4-0.6-0.9-0.6-1.5
		c0-0.6,0.2-1.1,0.6-1.5c0.4-0.4,0.9-0.6,1.5-0.6c0.6,0,1.1,0.2,1.5,0.6c0.4,0.4,0.6,0.9,0.6,1.5c0,0.6-0.2,1.1-0.6,1.5
		c-0.4,0.4-0.9,0.6-1.5,0.6C196.8,4.2,196.4,4,195.9,3.6z"/>
	<path d="M213.3,16c-1.4,1.4-3.1,2-5,2c-1.9,0-3.5-0.6-4.8-1.8c-1.3-1.2-1.9-2.8-1.9-4.8c0-2,0.6-3.6,1.9-4.8
		c1.3-1.2,2.8-1.8,4.5-1.8c1.7,0,3.2,0.5,4.4,1.6c1.2,1.1,1.8,2.5,1.8,4.3v1.9h-9.3c0.1,0.7,0.5,1.3,1.1,1.7
		c0.6,0.4,1.3,0.7,2.1,0.7c1.2,0,2.3-0.4,3.1-1.3L213.3,16z M209.9,8.5c-0.5-0.4-1.1-0.6-1.8-0.6c-0.7,0-1.3,0.2-1.9,0.6
		c-0.6,0.4-0.9,1-1,1.7h5.6C210.7,9.5,210.4,8.9,209.9,8.5z"/>
	<path d="M222.9,14.9c1.2,0,2.2-0.6,3.2-1.8l2.1,2.4c-1.6,1.7-3.4,2.5-5.3,2.5s-3.5-0.6-4.8-1.8c-1.3-1.2-2-2.8-2-4.7
		c0-1.9,0.7-3.5,2-4.7c1.3-1.2,2.9-1.8,4.7-1.8c0.9,0,1.8,0.2,2.8,0.6c0.9,0.4,1.8,0.9,2.5,1.7l-1.8,2.4c-0.4-0.5-0.9-0.9-1.5-1.1
		c-0.6-0.3-1.2-0.4-1.8-0.4c-0.9,0-1.7,0.3-2.4,0.9c-0.7,0.6-1,1.4-1,2.5c0,1.1,0.3,1.9,1,2.5C221.2,14.6,222,14.9,222.9,14.9z"/>
	<path d="M234.7,7.7v5.7c0,0.5,0.1,0.9,0.4,1.1c0.3,0.3,0.6,0.4,0.9,0.4c0.7,0,1.2-0.3,1.7-0.9l1.3,2.5c-1.1,1-2.3,1.5-3.5,1.5
		c-1.2,0-2.3-0.4-3.1-1.2c-0.8-0.8-1.3-1.9-1.3-3.3V7.7h-1.5V5.2h1.5V1.4h3.6v3.8h3.1v2.5H234.7z"/>
</g>
<g>
	<path d="M75.9,35.4c1.1,0,2-0.4,2.7-1.3l1.4,1.5c-1.1,1.3-2.5,1.9-4,1.9S73.2,37,72.2,36c-1-1-1.5-2.2-1.5-3.7
		c0-1.5,0.5-2.7,1.5-3.7c1-1,2.3-1.5,3.8-1.5c1.7,0,3,0.6,4.1,1.9l-1.4,1.6c-0.7-0.9-1.6-1.3-2.7-1.3c-0.8,0-1.6,0.3-2.2,0.8
		c-0.6,0.6-0.9,1.3-0.9,2.2s0.3,1.7,0.8,2.3C74.4,35.1,75.1,35.4,75.9,35.4z"/>
	<path d="M85.5,31.6c-0.6,0-1.1,0.2-1.4,0.7c-0.3,0.5-0.5,1.1-0.5,1.8v3.4h-2.2v-7.7h2.2v1c0.3-0.3,0.6-0.6,1-0.8
		c0.4-0.2,0.8-0.3,1.3-0.3l0,2H85.5z"/>
	<path d="M95,33.5c0,1.1-0.4,2.1-1.2,2.8c-0.8,0.8-1.8,1.2-2.9,1.2c-1.2,0-2.2-0.4-2.9-1.2c-0.8-0.8-1.2-1.7-1.2-2.8
		c0-1.1,0.4-2.1,1.2-2.8c0.8-0.8,1.8-1.2,2.9-1.2c1.2,0,2.2,0.4,2.9,1.2C94.6,31.5,95,32.4,95,33.5z M88.9,33.5
		c0,0.6,0.2,1.1,0.5,1.5c0.4,0.4,0.8,0.6,1.4,0.6c0.6,0,1-0.2,1.4-0.6c0.4-0.4,0.5-0.9,0.5-1.5c0-0.6-0.2-1.2-0.5-1.6
		c-0.4-0.4-0.8-0.6-1.4-0.6c-0.6,0-1,0.2-1.4,0.6C89.1,32.4,88.9,32.9,88.9,33.5z"/>
	<path d="M102.2,35c0,0.8-0.3,1.4-0.8,1.8c-0.6,0.5-1.3,0.7-2.1,0.7c-0.6,0-1.2-0.1-1.8-0.3c-0.6-0.2-1.2-0.5-1.7-0.9l1-1.4
		c0.8,0.6,1.7,0.9,2.6,0.9c0.3,0,0.5-0.1,0.7-0.2c0.2-0.1,0.2-0.3,0.2-0.4s-0.1-0.4-0.3-0.5c-0.2-0.2-0.6-0.3-1-0.4
		c-0.4-0.1-0.8-0.2-1-0.3c-0.2-0.1-0.5-0.2-0.8-0.4c-0.6-0.4-0.9-0.9-0.9-1.6c0-0.7,0.3-1.3,0.9-1.7c0.6-0.5,1.3-0.7,2.2-0.7
		c0.9,0,1.8,0.3,2.7,0.9l-0.8,1.4c-0.7-0.5-1.3-0.7-2-0.7c-0.7,0-1,0.2-1,0.5c0,0.2,0.1,0.4,0.3,0.5c0.2,0.1,0.6,0.2,1.1,0.4
		c0.5,0.2,0.8,0.3,1,0.4c0.2,0.1,0.5,0.2,0.7,0.4C102,33.7,102.2,34.2,102.2,35z"/>
	<path d="M109.7,35c0,0.8-0.3,1.4-0.8,1.8c-0.6,0.5-1.3,0.7-2.1,0.7c-0.6,0-1.2-0.1-1.8-0.3c-0.6-0.2-1.2-0.5-1.7-0.9l1-1.4
		c0.8,0.6,1.7,0.9,2.6,0.9c0.3,0,0.5-0.1,0.7-0.2c0.2-0.1,0.2-0.3,0.2-0.4s-0.1-0.4-0.3-0.5c-0.2-0.2-0.6-0.3-1-0.4
		c-0.4-0.1-0.8-0.2-1-0.3c-0.2-0.1-0.5-0.2-0.8-0.4c-0.6-0.4-0.9-0.9-0.9-1.6c0-0.7,0.3-1.3,0.9-1.7c0.6-0.5,1.3-0.7,2.2-0.7
		c0.9,0,1.8,0.3,2.7,0.9l-0.8,1.4c-0.7-0.5-1.3-0.7-2-0.7c-0.7,0-1,0.2-1,0.5c0,0.2,0.1,0.4,0.3,0.5c0.2,0.1,0.6,0.2,1.1,0.4
		c0.5,0.2,0.8,0.3,1,0.4c0.2,0.1,0.5,0.2,0.7,0.4C109.4,33.7,109.7,34.2,109.7,35z"/>
	<path d="M111.1,34v-1.9h5.1V34H111.1z"/>
	<path d="M120.4,37.4h-2.2V26.7h2.2V37.4z"/>
	<path d="M122.6,28.7c-0.2-0.2-0.4-0.5-0.4-0.9s0.1-0.7,0.4-0.9c0.2-0.2,0.5-0.4,0.9-0.4s0.7,0.1,0.9,0.4c0.2,0.2,0.4,0.5,0.4,0.9
		s-0.1,0.7-0.4,0.9c-0.2,0.2-0.5,0.4-0.9,0.4S122.8,28.9,122.6,28.7z M124.6,37.4h-2.2v-7.7h2.2V37.4z"/>
	<path d="M128.7,33.1v4.3h-2.2v-7.7h2.2v0.9c0.7-0.7,1.4-1,2.2-1s1.5,0.3,2.1,0.9c0.6,0.6,0.8,1.3,0.8,2.3v4.7h-2.2V33
		c0-1.2-0.4-1.8-1.3-1.8c-0.4,0-0.8,0.2-1.1,0.5C128.9,32,128.7,32.5,128.7,33.1z"/>
	<path d="M141.5,36.1c-0.7,0.8-1.5,1.1-2.5,1.1c-1,0-1.9-0.3-2.6-1s-1-1.6-1-2.8c0-1.1,0.4-2.1,1.1-2.8c0.7-0.7,1.5-1.1,2.5-1.1
		c0.9,0,1.7,0.4,2.3,1.1v-1h2.2v6.8c0,0.7-0.1,1.3-0.4,1.8c-0.2,0.5-0.6,1-1,1.3c-0.8,0.6-1.7,1-2.8,1c-0.6,0-1.2-0.1-1.8-0.3
		c-0.6-0.2-1.1-0.5-1.6-0.8l0.8-1.6c0.7,0.5,1.5,0.8,2.3,0.8c0.8,0,1.4-0.2,1.9-0.6C141.2,37.6,141.5,36.9,141.5,36.1z M141.2,33.4
		c0-0.6-0.2-1.1-0.5-1.5c-0.3-0.4-0.8-0.5-1.3-0.5c-0.5,0-0.9,0.2-1.3,0.5c-0.4,0.4-0.6,0.8-0.6,1.5s0.2,1.1,0.5,1.5
		c0.4,0.4,0.8,0.6,1.3,0.6c0.5,0,1-0.2,1.3-0.6C141,34.5,141.2,34,141.2,33.4z"/>
	<path d="M150.3,33.8v-4.2h2.2v7.7h-2.2v-1c-0.5,0.8-1.2,1.1-2.1,1.1c-0.8,0-1.6-0.3-2.1-0.8c-0.6-0.5-0.9-1.3-0.9-2.4v-4.7h2.2v4.2
		c0,1.2,0.4,1.8,1.3,1.8c0.4,0,0.8-0.2,1.1-0.5C150.2,34.9,150.3,34.4,150.3,33.8z"/>
	<path d="M161.1,37.4h-2v-0.9c-0.6,0.7-1.2,1.1-2.1,1.1c-0.8,0-1.5-0.2-2.1-0.7c-0.6-0.5-0.8-1.1-0.8-1.9c0-0.8,0.3-1.4,0.9-1.8
		c0.6-0.4,1.4-0.6,2.4-0.6h1.6v0c0-0.8-0.4-1.2-1.3-1.2c-0.4,0-0.8,0.1-1.2,0.2c-0.4,0.1-0.8,0.3-1.1,0.6l-1-1.4
		c1-0.7,2.2-1.1,3.5-1.1c0.9,0,1.7,0.2,2.3,0.7c0.6,0.5,0.9,1.2,0.9,2.2V37.4z M158.9,34.4v-0.4h-1.4c-0.9,0-1.3,0.3-1.3,0.8
		c0,0.3,0.1,0.5,0.3,0.6c0.2,0.1,0.5,0.2,0.9,0.2c0.4,0,0.7-0.1,1-0.4C158.8,35.2,158.9,34.8,158.9,34.4z"/>
	<path d="M165.2,37.4h-2.2V26.7h2.2V37.4z"/>
	<path d="M176.9,35c0,0.8-0.3,1.4-0.8,1.8c-0.6,0.5-1.3,0.7-2.1,0.7c-0.6,0-1.2-0.1-1.8-0.3c-0.6-0.2-1.2-0.5-1.7-0.9l1-1.4
		c0.8,0.6,1.7,0.9,2.6,0.9c0.3,0,0.5-0.1,0.7-0.2c0.2-0.1,0.2-0.3,0.2-0.4s-0.1-0.4-0.3-0.5c-0.2-0.2-0.6-0.3-1-0.4
		c-0.4-0.1-0.8-0.2-1-0.3c-0.2-0.1-0.5-0.2-0.8-0.4c-0.6-0.4-0.9-0.9-0.9-1.6c0-0.7,0.3-1.3,0.9-1.7c0.6-0.5,1.3-0.7,2.2-0.7
		s1.8,0.3,2.7,0.9l-0.8,1.4c-0.7-0.5-1.3-0.7-2-0.7s-1,0.2-1,0.5c0,0.2,0.1,0.4,0.3,0.5c0.2,0.1,0.6,0.2,1.1,0.4
		c0.5,0.2,0.8,0.3,1,0.4c0.2,0.1,0.5,0.2,0.7,0.4C176.6,33.7,176.9,34.2,176.9,35z"/>
	<path d="M185.2,36.3c-0.9,0.8-1.9,1.2-3.1,1.2c-1.2,0-2.1-0.4-2.9-1.1c-0.8-0.7-1.2-1.7-1.2-2.9s0.4-2.2,1.2-2.9
		c0.8-0.7,1.7-1.1,2.8-1.1c1.1,0,2,0.3,2.7,1c0.7,0.6,1.1,1.5,1.1,2.7v1.2h-5.6c0.1,0.4,0.3,0.8,0.7,1c0.4,0.3,0.8,0.4,1.3,0.4
		c0.8,0,1.4-0.3,1.9-0.8L185.2,36.3z M183.1,31.7c-0.3-0.2-0.7-0.4-1.1-0.4c-0.4,0-0.8,0.1-1.2,0.4c-0.4,0.3-0.6,0.6-0.6,1.1h3.4
		C183.6,32.3,183.4,31.9,183.1,31.7z"/>
	<path d="M193.9,37.4h-2v-0.9c-0.6,0.7-1.2,1.1-2.1,1.1c-0.8,0-1.5-0.2-2.1-0.7c-0.6-0.5-0.8-1.1-0.8-1.9c0-0.8,0.3-1.4,0.9-1.8
		c0.6-0.4,1.4-0.6,2.4-0.6h1.6v0c0-0.8-0.4-1.2-1.3-1.2c-0.4,0-0.8,0.1-1.2,0.2c-0.4,0.1-0.8,0.3-1.1,0.6l-1-1.4
		c1-0.7,2.2-1.1,3.5-1.1c0.9,0,1.7,0.2,2.3,0.7c0.6,0.5,0.9,1.2,0.9,2.2V37.4z M191.7,34.4v-0.4h-1.4c-0.9,0-1.3,0.3-1.3,0.8
		c0,0.3,0.1,0.5,0.3,0.6c0.2,0.1,0.5,0.2,0.9,0.2c0.4,0,0.7-0.1,1-0.4C191.6,35.2,191.7,34.8,191.7,34.4z"/>
	<path d="M199.9,31.6c-0.6,0-1.1,0.2-1.4,0.7c-0.3,0.5-0.5,1.1-0.5,1.8v3.4h-2.2v-7.7h2.2v1c0.3-0.3,0.6-0.6,1-0.8
		c0.4-0.2,0.8-0.3,1.3-0.3l0,2H199.9z"/>
	<path d="M205.4,35.6c0.7,0,1.4-0.4,1.9-1.1l1.3,1.4c-1,1-2.1,1.6-3.2,1.6c-1.2,0-2.1-0.4-2.9-1.1c-0.8-0.7-1.2-1.7-1.2-2.9
		s0.4-2.2,1.2-2.9c0.8-0.7,1.8-1.1,2.9-1.1c0.6,0,1.1,0.1,1.7,0.3c0.6,0.2,1.1,0.6,1.5,1l-1.1,1.5c-0.2-0.3-0.6-0.5-0.9-0.7
		c-0.4-0.2-0.7-0.2-1.1-0.2c-0.6,0-1.1,0.2-1.5,0.6c-0.4,0.4-0.6,0.9-0.6,1.5c0,0.7,0.2,1.2,0.6,1.5
		C204.3,35.4,204.8,35.6,205.4,35.6z"/>
	<path d="M212.1,33.2v4.2h-2.2V26.7h2.2v3.8c0.7-0.7,1.4-1,2.2-1c0.8,0,1.5,0.3,2.1,0.9c0.6,0.6,0.8,1.3,0.8,2.3v4.7H215v-4.2
		c0-1.2-0.4-1.8-1.3-1.8c-0.4,0-0.8,0.2-1.1,0.5C212.3,32.2,212.1,32.6,212.1,33.2z"/>
	<path d="M230.7,33.5c0,1.1-0.4,2.1-1.2,2.8c-0.8,0.8-1.8,1.2-2.9,1.2c-1.2,0-2.2-0.4-2.9-1.2c-0.8-0.8-1.2-1.7-1.2-2.8
		c0-1.1,0.4-2.1,1.2-2.8c0.8-0.8,1.8-1.2,2.9-1.2c1.2,0,2.2,0.4,2.9,1.2C230.3,31.5,230.7,32.4,230.7,33.5z M224.7,33.5
		c0,0.6,0.2,1.1,0.5,1.5c0.4,0.4,0.8,0.6,1.4,0.6c0.6,0,1-0.2,1.4-0.6c0.4-0.4,0.5-0.9,0.5-1.5c0-0.6-0.2-1.2-0.5-1.6
		c-0.4-0.4-0.8-0.6-1.4-0.6c-0.6,0-1,0.2-1.4,0.6C224.9,32.4,224.7,32.9,224.7,33.5z"/>
	<path d="M234.7,29.2v0.5h1.9v1.6h-1.9v6.1h-2.2v-6.1h-0.9v-1.6h0.9v-0.5c0-0.8,0.3-1.5,0.8-2c0.5-0.5,1.2-0.7,1.9-0.7
		c0.8,0,1.5,0.3,2.1,0.9l-0.8,1.5c-0.3-0.4-0.7-0.5-1.1-0.5c-0.2,0-0.4,0.1-0.5,0.2C234.7,28.7,234.7,28.9,234.7,29.2z"/>
	<path d="M75.5,45.4c0.9,0,1.8,0.4,2.5,1.1c0.7,0.7,1.1,1.7,1.1,2.8c0,1.2-0.4,2.1-1.1,2.9c-0.7,0.8-1.5,1.2-2.5,1.2
		c-0.9,0-1.7-0.4-2.3-1.1v1h-2.2V42.6h2.2v3.8C73.8,45.7,74.6,45.4,75.5,45.4z M73.2,49.4c0,0.6,0.2,1.1,0.5,1.5
		c0.4,0.4,0.8,0.6,1.3,0.6s0.9-0.2,1.3-0.6c0.4-0.4,0.6-0.9,0.6-1.5c0-0.6-0.2-1.1-0.5-1.6c-0.4-0.4-0.8-0.6-1.3-0.6
		c-0.5,0-0.9,0.2-1.3,0.6C73.4,48.2,73.2,48.7,73.2,49.4z"/>
	<path d="M80.8,44.5c-0.2-0.2-0.4-0.5-0.4-0.9s0.1-0.7,0.4-0.9c0.2-0.2,0.5-0.4,0.9-0.4c0.4,0,0.7,0.1,0.9,0.4
		c0.2,0.2,0.4,0.5,0.4,0.9s-0.1,0.7-0.4,0.9c-0.2,0.2-0.5,0.4-0.9,0.4C81.3,44.9,81,44.8,80.8,44.5z M82.8,53.2h-2.2v-7.7h2.2V53.2z
		"/>
	<path d="M89.3,45.4c0.9,0,1.8,0.4,2.5,1.1c0.7,0.7,1.1,1.7,1.1,2.8c0,1.2-0.4,2.1-1.1,2.9c-0.7,0.8-1.5,1.2-2.5,1.2
		S87.6,53,87,52.2v1h-2.2V42.6H87v3.8C87.6,45.7,88.3,45.4,89.3,45.4z M86.9,49.4c0,0.6,0.2,1.1,0.5,1.5c0.4,0.4,0.8,0.6,1.3,0.6
		s0.9-0.2,1.3-0.6c0.4-0.4,0.6-0.9,0.6-1.5c0-0.6-0.2-1.1-0.5-1.6c-0.4-0.4-0.8-0.6-1.3-0.6s-0.9,0.2-1.3,0.6
		C87.1,48.2,86.9,48.7,86.9,49.4z"/>
	<path d="M96.5,53.2h-2.2V42.6h2.2V53.2z"/>
	<path d="M98.7,44.5c-0.2-0.2-0.4-0.5-0.4-0.9s0.1-0.7,0.4-0.9c0.2-0.2,0.5-0.4,0.9-0.4c0.4,0,0.7,0.1,0.9,0.4
		c0.2,0.2,0.4,0.5,0.4,0.9s-0.1,0.7-0.4,0.9c-0.2,0.2-0.5,0.4-0.9,0.4C99.3,44.9,99,44.8,98.7,44.5z M100.7,53.2h-2.2v-7.7h2.2V53.2
		z"/>
	<path d="M110.5,49.4c0,1.1-0.4,2.1-1.2,2.8c-0.8,0.8-1.8,1.2-2.9,1.2c-1.2,0-2.2-0.4-2.9-1.2c-0.8-0.8-1.2-1.7-1.2-2.8
		c0-1.1,0.4-2.1,1.2-2.8s1.8-1.2,2.9-1.2c1.2,0,2.2,0.4,2.9,1.2S110.5,48.2,110.5,49.4z M104.4,49.4c0,0.6,0.2,1.1,0.5,1.5
		c0.4,0.4,0.8,0.6,1.4,0.6c0.6,0,1-0.2,1.4-0.6c0.4-0.4,0.5-0.9,0.5-1.5c0-0.6-0.2-1.2-0.5-1.6s-0.8-0.6-1.4-0.6
		c-0.6,0-1,0.2-1.4,0.6C104.6,48.2,104.4,48.7,104.4,49.4z"/>
	<path d="M117.7,51.9c-0.7,0.8-1.5,1.1-2.5,1.1c-1,0-1.9-0.3-2.6-1c-0.7-0.7-1-1.6-1-2.8c0-1.1,0.4-2.1,1.1-2.8
		c0.7-0.7,1.5-1.1,2.5-1.1c0.9,0,1.7,0.4,2.3,1.1v-1h2.2v6.8c0,0.7-0.1,1.3-0.4,1.8c-0.2,0.5-0.6,1-1,1.3c-0.8,0.6-1.7,1-2.8,1
		c-0.6,0-1.2-0.1-1.8-0.3c-0.6-0.2-1.1-0.5-1.6-0.8l0.8-1.6c0.7,0.5,1.5,0.8,2.3,0.8c0.8,0,1.4-0.2,1.9-0.6
		C117.5,53.4,117.7,52.8,117.7,51.9z M117.4,49.2c0-0.6-0.2-1.1-0.5-1.5c-0.3-0.4-0.8-0.5-1.3-0.5c-0.5,0-0.9,0.2-1.3,0.5
		s-0.6,0.8-0.6,1.5c0,0.6,0.2,1.1,0.5,1.5c0.4,0.4,0.8,0.6,1.3,0.6c0.5,0,1-0.2,1.3-0.6C117.3,50.3,117.4,49.8,117.4,49.2z"/>
	<path d="M125.7,47.4c-0.6,0-1.1,0.2-1.4,0.7c-0.3,0.5-0.5,1.1-0.5,1.8v3.4h-2.2v-7.7h2.2v1c0.3-0.3,0.6-0.6,1-0.8
		c0.4-0.2,0.8-0.3,1.3-0.3l0,2H125.7z"/>
	<path d="M134,53.2h-2v-0.9c-0.6,0.7-1.2,1.1-2.1,1.1c-0.8,0-1.5-0.2-2.1-0.7c-0.6-0.5-0.8-1.1-0.8-1.9c0-0.8,0.3-1.4,0.9-1.8
		c0.6-0.4,1.4-0.6,2.4-0.6h1.6v0c0-0.8-0.4-1.2-1.3-1.2c-0.4,0-0.8,0.1-1.2,0.2c-0.4,0.1-0.8,0.3-1.1,0.6l-1-1.4
		c1-0.7,2.2-1.1,3.5-1.1c0.9,0,1.7,0.2,2.3,0.7c0.6,0.5,0.9,1.2,0.9,2.2V53.2z M131.8,50.3v-0.4h-1.4c-0.9,0-1.3,0.3-1.3,0.8
		c0,0.3,0.1,0.5,0.3,0.6c0.2,0.1,0.5,0.2,0.9,0.2c0.4,0,0.7-0.1,1-0.4C131.6,51,131.8,50.7,131.8,50.3z"/>
	<path d="M140.4,45.4c0.9,0,1.7,0.4,2.4,1.1c0.7,0.8,1.1,1.7,1.1,2.8c0,1.1-0.4,2.1-1.1,2.9c-0.7,0.8-1.5,1.2-2.5,1.2
		s-1.7-0.4-2.3-1.1V56h-2.2V45.5h2.2v0.9C138.7,45.7,139.5,45.4,140.4,45.4z M138.1,49.4c0,0.6,0.2,1.1,0.5,1.5
		c0.4,0.4,0.8,0.6,1.3,0.6c0.5,0,0.9-0.2,1.3-0.6c0.4-0.4,0.6-0.9,0.6-1.5c0-0.6-0.2-1.1-0.5-1.6s-0.8-0.6-1.3-0.6
		c-0.5,0-0.9,0.2-1.3,0.6C138.2,48.2,138.1,48.7,138.1,49.4z"/>
	<path d="M147.6,49.1v4.2h-2.2V42.6h2.2v3.8c0.7-0.7,1.4-1,2.2-1s1.5,0.3,2.1,0.9c0.6,0.6,0.8,1.3,0.8,2.3v4.7h-2.2V49
		c0-1.2-0.4-1.8-1.3-1.8c-0.4,0-0.8,0.2-1.1,0.5C147.8,48,147.6,48.5,147.6,49.1z"/>
	<path d="M154.8,44.5c-0.2-0.2-0.4-0.5-0.4-0.9s0.1-0.7,0.4-0.9c0.2-0.2,0.5-0.4,0.9-0.4c0.4,0,0.7,0.1,0.9,0.4
		c0.2,0.2,0.4,0.5,0.4,0.9s-0.1,0.7-0.4,0.9c-0.2,0.2-0.5,0.4-0.9,0.4C155.4,44.9,155.1,44.8,154.8,44.5z M156.8,53.2h-2.2v-7.7h2.2
		V53.2z"/>
	<path d="M162.5,51.4c0.7,0,1.4-0.4,1.9-1.1l1.3,1.4c-1,1-2.1,1.6-3.2,1.6c-1.2,0-2.1-0.4-2.9-1.1c-0.8-0.7-1.2-1.7-1.2-2.9
		c0-1.2,0.4-2.2,1.2-2.9c0.8-0.7,1.8-1.1,2.9-1.1c0.6,0,1.1,0.1,1.7,0.3c0.6,0.2,1.1,0.6,1.5,1l-1.1,1.5c-0.2-0.3-0.6-0.5-0.9-0.7
		c-0.4-0.2-0.7-0.2-1.1-0.2c-0.6,0-1.1,0.2-1.5,0.6c-0.4,0.4-0.6,0.9-0.6,1.5c0,0.7,0.2,1.2,0.6,1.5C161.5,51.3,162,51.4,162.5,51.4
		z"/>
	<path d="M178.1,49.1v4.2h-2.2V49c0-0.6-0.1-1.1-0.3-1.4c-0.2-0.3-0.5-0.4-0.9-0.4c-0.4,0-0.8,0.2-1.1,0.5c-0.3,0.3-0.5,0.8-0.5,1.4
		v4.2H171v-7.7h2.2v0.9c0.6-0.7,1.3-1,2-1c0.5,0,0.9,0.1,1.3,0.4c0.4,0.3,0.7,0.6,0.9,1.1c0.3-0.5,0.7-0.8,1.2-1.1
		c0.5-0.3,1-0.4,1.5-0.4c0.9,0,1.6,0.3,2.2,0.8c0.6,0.5,0.8,1.3,0.8,2.4v4.7H181V49c0-1.2-0.4-1.8-1.3-1.8c-0.4,0-0.8,0.2-1.1,0.5
		C178.3,48,178.1,48.5,178.1,49.1z"/>
	<path d="M191.8,52.1c-0.9,0.8-1.9,1.2-3.1,1.2c-1.2,0-2.1-0.4-2.9-1.1c-0.8-0.7-1.2-1.7-1.2-2.9c0-1.2,0.4-2.2,1.2-2.9
		c0.8-0.7,1.7-1.1,2.8-1.1c1.1,0,2,0.3,2.7,1c0.7,0.6,1.1,1.5,1.1,2.6v1.2h-5.6c0.1,0.4,0.3,0.8,0.7,1c0.4,0.3,0.8,0.4,1.3,0.4
		c0.8,0,1.4-0.3,1.9-0.8L191.8,52.1z M189.8,47.5c-0.3-0.2-0.7-0.4-1.1-0.4c-0.4,0-0.8,0.1-1.2,0.4c-0.4,0.3-0.6,0.6-0.6,1.1h3.4
		C190.2,48.1,190.1,47.8,189.8,47.5z"/>
	<path d="M196.4,47.1v3.5c0,0.3,0.1,0.5,0.2,0.7c0.2,0.2,0.3,0.3,0.5,0.3c0.4,0,0.7-0.2,1-0.5l0.8,1.5c-0.7,0.6-1.4,0.9-2.1,0.9
		s-1.4-0.2-1.9-0.7c-0.5-0.5-0.8-1.2-0.8-2v-3.6h-0.9v-1.6h0.9v-2.3h2.2v2.3h1.9v1.6H196.4z"/>
	<path d="M206.7,53.2h-2v-0.9c-0.6,0.7-1.2,1.1-2.1,1.1c-0.8,0-1.5-0.2-2.1-0.7s-0.8-1.1-0.8-1.9c0-0.8,0.3-1.4,0.9-1.8
		c0.6-0.4,1.4-0.6,2.4-0.6h1.6v0c0-0.8-0.4-1.2-1.3-1.2c-0.4,0-0.8,0.1-1.2,0.2c-0.4,0.1-0.8,0.3-1.1,0.6l-1-1.4
		c1-0.7,2.2-1.1,3.5-1.1c0.9,0,1.7,0.2,2.3,0.7c0.6,0.5,0.9,1.2,0.9,2.2V53.2z M204.6,50.3v-0.4h-1.4c-0.9,0-1.3,0.3-1.3,0.8
		c0,0.3,0.1,0.5,0.3,0.6c0.2,0.1,0.5,0.2,0.9,0.2c0.4,0,0.7-0.1,1-0.4C204.4,51,204.6,50.7,204.6,50.3z"/>
	<path d="M211.8,53.4c-0.9,0-1.7-0.4-2.5-1.2c-0.7-0.8-1.1-1.7-1.1-2.9c0-1.2,0.4-2.1,1.1-2.8c0.7-0.7,1.5-1.1,2.5-1.1
		c0.9,0,1.7,0.3,2.3,1v-3.8h2.2v10.7h-2.2v-1C213.5,53,212.7,53.4,211.8,53.4z M210.4,49.4c0,0.6,0.2,1.1,0.6,1.5
		c0.4,0.4,0.8,0.6,1.3,0.6c0.5,0,0.9-0.2,1.3-0.6c0.4-0.4,0.5-0.9,0.5-1.5c0-0.6-0.2-1.2-0.5-1.6c-0.4-0.4-0.8-0.6-1.3-0.6
		s-0.9,0.2-1.3,0.6S210.4,48.8,210.4,49.4z"/>
	<path d="M224.8,53.2h-2v-0.9c-0.6,0.7-1.2,1.1-2.1,1.1c-0.8,0-1.5-0.2-2.1-0.7c-0.6-0.5-0.8-1.1-0.8-1.9c0-0.8,0.3-1.4,0.9-1.8
		c0.6-0.4,1.4-0.6,2.4-0.6h1.6v0c0-0.8-0.4-1.2-1.3-1.2c-0.4,0-0.8,0.1-1.2,0.2c-0.4,0.1-0.8,0.3-1.1,0.6l-1-1.4
		c1-0.7,2.2-1.1,3.5-1.1c0.9,0,1.7,0.2,2.3,0.7c0.6,0.5,0.9,1.2,0.9,2.2V53.2z M222.7,50.3v-0.4h-1.4c-0.9,0-1.3,0.3-1.3,0.8
		c0,0.3,0.1,0.5,0.3,0.6c0.2,0.1,0.5,0.2,0.9,0.2c0.4,0,0.7-0.1,1-0.4C222.5,51,222.7,50.7,222.7,50.3z"/>
	<path d="M229.2,47.1v3.5c0,0.3,0.1,0.5,0.2,0.7c0.2,0.2,0.3,0.3,0.5,0.3c0.4,0,0.7-0.2,1-0.5l0.8,1.5c-0.7,0.6-1.4,0.9-2.1,0.9
		s-1.4-0.2-1.9-0.7c-0.5-0.5-0.8-1.2-0.8-2v-3.6h-0.9v-1.6h0.9v-2.3h2.2v2.3h1.9v1.6H229.2z"/>
	<path d="M239.5,53.2h-2v-0.9c-0.6,0.7-1.2,1.1-2.1,1.1s-1.5-0.2-2.1-0.7c-0.6-0.5-0.8-1.1-0.8-1.9c0-0.8,0.3-1.4,0.9-1.8
		c0.6-0.4,1.4-0.6,2.4-0.6h1.6v0c0-0.8-0.4-1.2-1.3-1.2c-0.4,0-0.8,0.1-1.2,0.2c-0.4,0.1-0.8,0.3-1.1,0.6l-1-1.4
		c1-0.7,2.2-1.1,3.5-1.1c0.9,0,1.7,0.2,2.3,0.7c0.6,0.5,0.9,1.2,0.9,2.2V53.2z M237.3,50.3v-0.4H236c-0.9,0-1.3,0.3-1.3,0.8
		c0,0.3,0.1,0.5,0.3,0.6c0.2,0.1,0.5,0.2,0.9,0.2s0.7-0.1,1-0.4C237.2,51,237.3,50.7,237.3,50.3z"/>
</g>
<g>
</g>
<g>
</g>
<g>
</g>
<g>
</g>
<g>
</g>
<g>
</g>
<g>
</g>
<g>
</g>
<g>
</g>
<g>
</g>
<g>
</g>
<g>
</g>
<g>
</g>
<g>
</g>
<g>
</g>
</svg>
